<svg width="325" height="325" viewBox="0 0 325 325" fill="none" xmlns="http://www.w3.org/2000/svg">
<rect width="325" height="325" fill="white"/>
<path d="M208.818 218.02C223.351 219.792 235.821 228.755 246.083 229.983C257.487 231.347 274.735 223.854 292.323 232.673C296.85 234.943 300.568 237.671 299.183 241.062C296.769 246.97 291.69 249.285 280.563 250.891L279.376 251.055C270.774 252.198 261.529 252.476 238.094 252.63L230.086 252.691C201.517 252.94 184.996 254.277 163.603 255.986L161.422 256.163C122.026 259.405 90.5787 258.886 67.081 255.292L66.3714 255.182C47.387 252.208 35.9732 247.29 30.4016 241.709C27.1216 238.424 25.2323 235.36 25.1348 232.086C25.0373 228.812 29.8748 225.213 32.629 223.854C40.3014 220.068 42.8048 218.695 57.5546 216.757C63.9054 215.923 73.42 215.989 84.418 215.618C123.872 214.286 184.822 215.094 208.818 218.02Z" fill="white"/>
<path fill-rule="evenodd" clip-rule="evenodd" d="M220.346 225.16C197.98 275.783 117.043 274.152 60.7255 239.601C49.9701 233.002 12.9987 201.901 49.3873 183.739C85.7758 165.578 74.1205 137.682 103.487 104.41C137.449 65.9328 200.694 46.1981 245.173 97.9678C358.225 229.548 227.877 208.114 220.346 225.16Z" fill="#3A70C1"/>
<path fill-rule="evenodd" clip-rule="evenodd" d="M70.8318 90.925C68.8154 87.685 66.7949 86.4419 64.8073 87.5172C63.1247 88.4276 62.8448 90.8591 63.7401 94.749L63.2035 95.0384C62.4663 95.4359 62.1909 96.3559 62.5884 97.0932C62.6228 97.1569 62.6617 97.2181 62.7049 97.2764L62.9924 97.6611C67.1899 103.229 70.5159 105.51 73.111 104.256C75.2921 103.202 75.6605 98.7119 74.5384 90.5875C74.4597 90.0185 73.9527 89.6141 73.3879 89.6551L73.317 89.6626C73.1888 89.6803 73.0649 89.7208 72.951 89.7822L70.8318 90.925ZM64.8803 93.877L69.5599 91.3453L69.5488 91.3281C67.9397 88.8322 66.5763 88.0382 65.4259 88.6606L65.3731 88.691C64.5236 89.2095 64.2882 90.8383 64.8292 93.6223L64.8803 93.877ZM73.2922 91.075L63.8205 96.1826C63.7152 96.2394 63.6759 96.3708 63.7327 96.4762C63.7376 96.4853 63.7431 96.494 63.7493 96.5023L64.0283 96.8756C67.8649 101.965 70.7505 103.953 72.5453 103.085C73.9089 102.426 74.2668 98.4238 73.3181 91.2642L73.2922 91.075ZM71.357 99.2643C71.5798 99.0309 71.7167 98.7148 71.7167 98.3667C71.7167 97.6487 71.1346 97.0667 70.4167 97.0667C69.6987 97.0667 69.1167 97.6487 69.1167 98.3667C69.1167 99.0846 69.6987 99.6667 70.4167 99.6667C70.4732 99.6667 70.5289 99.663 70.5835 99.656L71.3225 101.013L71.3493 101.056C71.4743 101.233 71.7152 101.292 71.9104 101.186C72.1205 101.071 72.1981 100.808 72.0836 100.598L71.357 99.2643Z" fill="#FFB61D"/>
<path fill-rule="evenodd" clip-rule="evenodd" d="M208.818 218.02C223.351 219.792 235.821 228.755 246.083 229.983C257.487 231.347 274.735 223.854 292.323 232.673C296.85 234.943 300.568 237.671 299.183 241.062C296.769 246.97 291.69 249.285 280.563 250.891L279.376 251.055C270.774 252.198 261.529 252.476 238.094 252.63L230.086 252.691C201.517 252.94 184.996 254.277 163.603 255.986L161.422 256.163C122.026 259.405 90.5787 258.886 67.081 255.292L66.3714 255.182C47.387 252.208 35.9732 247.29 30.4016 241.709C27.1216 238.424 25.2323 235.36 25.1348 232.086C25.0373 228.812 29.8748 225.213 32.629 223.854C40.3014 220.068 42.8048 218.695 57.5546 216.757C63.9054 215.923 73.42 215.989 84.418 215.618C123.872 214.286 184.822 215.094 208.818 218.02ZM57.229 219.5L56.2624 219.628C42.5171 221.492 33.7304 224.883 29.568 228.264L29.3082 228.481C26.1121 231.236 25.8133 234.332 30.4075 238.909C35.4308 243.914 48.2427 249.56 66.7162 252.438C89.8437 256.042 120.937 257.088 159.985 253.954L164.079 253.625C186.623 251.852 203.919 250.909 235.93 250.684L244.766 250.618C263.824 250.446 271.925 250.105 279.744 249.018L280.488 248.911C315.018 242.157 290.103 230.038 275.808 229.983C263.565 229.935 248.861 233.379 244.766 232.09C231.86 228.028 225.233 221.808 208.818 219.817L204.045 219.245L199.97 219.053C133.189 215.951 85.5956 215.792 57.229 219.5Z" fill="#00160A"/>
<path d="M100.48 62.5636C100.243 62.556 100.005 62.5563 99.7682 62.5644C93.9244 62.7654 89.3372 67.6187 89.4431 73.4467L89.4478 73.6236L89.5195 75.8074C89.7247 82.3669 89.8376 88.9005 89.8581 95.4081L89.8934 115.431C89.9013 122.638 89.8969 129.142 89.8758 135.511L89.8468 142.266C89.7332 163.771 89.4269 178.864 88.8584 185.434L88.7485 186.663C88.0624 194.692 87.9202 206.224 88.3272 221.233C88.3319 221.406 88.3406 221.58 88.3534 221.753C88.8031 227.838 94.052 232.421 100.124 232.071L100.308 232.059L102.326 231.913C121.187 230.567 140.049 229.894 158.911 229.894C177.372 229.894 195.976 230.538 214.721 231.828C215.263 231.865 215.807 231.868 216.35 231.838C223.457 231.436 228.909 225.405 228.623 218.317L228.613 218.101L228.471 215.545C227.213 192.516 226.561 169.486 226.516 146.457L226.514 143.898C226.514 127.113 227.3 104.093 228.871 74.8276C228.889 74.4998 228.892 74.1713 228.882 73.8431C228.685 67.4905 223.426 62.4871 217.094 62.5812L216.902 62.5856L207.319 62.8761C185.546 63.5183 169.692 63.8539 159.747 63.8828L158.042 63.8847L156.288 63.8801C146.137 63.8365 130.42 63.4884 109.13 62.8357L100.48 62.5636Z" fill="white"/>
<path fill-rule="evenodd" clip-rule="evenodd" d="M216.16 61.9667C215.392 62.3874 214.38 62.6832 213.125 62.854C216.357 63.1411 218.898 63.0741 220.748 62.6532L220.348 62.6037C219.045 62.4391 217.649 62.2268 216.16 61.9667Z" fill="#E7EAEE"/>
<path fill-rule="evenodd" clip-rule="evenodd" d="M94.5983 216.935L94.6883 216.938C95.2469 216.977 95.6408 217.413 95.5894 217.894C95.5306 218.446 94.9416 218.98 94.2985 219.025C93.7873 219.06 93.4323 218.667 93.489 218.056C93.5484 217.416 94.0502 216.937 94.5983 216.935Z" fill="#E7EAEE"/>
<path fill-rule="evenodd" clip-rule="evenodd" d="M104.828 225.304L104.918 225.307C105.476 225.346 105.87 225.782 105.819 226.264C105.76 226.815 105.171 227.35 104.528 227.394C104.017 227.429 103.662 227.036 103.718 226.425C103.778 225.785 104.28 225.306 104.828 225.304Z" fill="#E7EAEE"/>
<path fill-rule="evenodd" clip-rule="evenodd" d="M159.024 224.754C136.832 229.652 178.5 228.786 194.755 227.714C203.601 227.13 210.665 231.549 214.721 231.828C215.263 231.865 215.807 231.868 216.35 231.838C223.457 231.436 228.909 225.405 228.623 218.317L228.613 218.102L228.471 215.545C227.213 192.516 226.561 169.486 226.516 146.457L226.514 143.898C226.514 127.113 227.3 104.093 228.871 74.8276C228.889 74.4998 228.892 74.1713 228.882 73.8432C228.685 67.4905 216.511 212.066 159.024 224.754Z" fill="#E7EAEE"/>
<path d="M224.843 218.834L224.922 218.837C225.326 218.869 225.657 219.29 225.609 219.805C225.556 220.374 225.066 220.886 224.576 220.924C224.231 220.952 223.94 220.581 223.992 219.945C224.044 219.295 224.452 218.844 224.843 218.834Z" fill="white"/>
<path fill-rule="evenodd" clip-rule="evenodd" d="M224.704 222.547C223.259 222.661 222.244 221.369 222.37 219.814C222.492 218.303 223.643 217.104 225.025 217.213C226.384 217.32 227.359 218.561 227.23 219.955C227.105 221.294 226.003 222.444 224.704 222.547ZM224.922 218.837L224.843 218.834C224.452 218.844 224.044 219.295 223.992 219.945C223.94 220.581 224.231 220.952 224.576 220.924C225.066 220.886 225.556 220.374 225.609 219.805C225.657 219.29 225.326 218.869 224.922 218.837Z" fill="white"/>
<path d="M211.098 71.9429C216.234 71.9429 220.397 76.1064 220.397 81.2424C220.397 81.4346 220.391 81.6268 220.38 81.8186L220.243 84.0968C219.993 88.4207 219.744 93.5545 219.495 99.498L219.457 100.45C218.85 116.438 218.831 154.263 219.4 213.925C219.449 219.061 215.325 223.264 210.189 223.313C210.064 223.314 209.939 223.313 209.814 223.309L107.789 220.162C103.065 220.016 99.2014 216.35 98.8083 211.64L98.7218 210.576C97.3781 193.64 97.2981 172.014 98.4818 145.699L98.6554 141.926C99.2599 128.078 99.3073 107.91 98.7977 81.4212C98.6999 76.3397 102.697 72.1319 107.756 71.949L108.006 71.9433L211.098 71.9429Z" fill="white"/>
<path fill-rule="evenodd" clip-rule="evenodd" d="M142.503 181.611C147.01 181.8 151.639 181.001 155.653 179.04C160.68 176.583 164.463 172.462 166.557 166.553C169.315 158.77 168.302 150.353 164.337 142.946C160.808 136.353 155.26 131.335 150.146 130.094C150.146 130.094 164.337 150.057 162.304 160.97C159.196 177.656 142.503 181.611 142.503 181.611Z" fill="#E7EAEE"/>
<path fill-rule="evenodd" clip-rule="evenodd" d="M145.781 158.167C147.974 159.077 148.644 160.767 147.79 163.239L147.741 163.377C142.186 178.629 135.635 178.768 141.241 163.377C141.92 161.512 141.751 160.082 140.736 159.086C142.531 158.721 144.212 158.415 145.781 158.167Z" fill="#E7EAEE"/>
<path fill-rule="evenodd" clip-rule="evenodd" d="M110.99 140.338C112.427 136.068 114.525 132.858 118.448 130.32L118.946 130.004C119.792 129.473 120.836 128.871 121.684 129.282C122.762 129.804 124.323 131.707 123.373 132.454C122.729 132.96 120.078 133.499 118.08 135.249C115.721 137.316 114.022 140.647 114.022 141.462C114.022 144.123 110.141 142.86 110.99 140.338Z" fill="#E7EAEE"/>
<path fill-rule="evenodd" clip-rule="evenodd" d="M106.545 79.4742C101.611 93.0213 101.645 95.7092 101.349 93.3742C100.391 85.8227 99.6691 80.8602 100.807 77.8458C102.247 74.0295 105.858 73.2788 106.788 73.7218C108.754 74.6582 106.545 79.4742 106.545 79.4742Z" fill="#E7EAEE"/>
<path fill-rule="evenodd" clip-rule="evenodd" d="M187.719 149.096L186.077 149.045C184.13 148.996 182.726 149.008 181.549 149.1C180.603 149.173 179.897 149.302 179.498 149.429L179.418 149.455L179.411 149.492C179.366 149.713 179.335 150.009 179.321 150.366L179.317 150.503C179.29 151.576 179.42 153.008 179.678 154.609C179.889 155.921 180.177 157.283 180.478 158.432L180.554 158.715C180.67 159.143 180.783 159.516 180.881 159.806L180.917 159.91L180.96 159.926C181.565 160.141 182.767 160.166 185.086 159.995L186.66 159.872C187.721 159.794 188.494 159.761 189.257 159.77L196.657 159.925C197.692 159.944 198.627 159.96 199.543 159.972L201.206 159.991C205.357 160.232 209.92 160.051 210.487 159.018C212.218 155.866 213.034 149.375 212.218 149.332C210.75 149.254 208.972 149.162 208.128 149.173L206.178 149.208L204.41 149.222C203.602 149.227 202.76 149.23 201.856 149.23L191.715 149.207C191.055 149.202 190.41 149.186 189.246 149.148L187.719 149.096Z" fill="#E7EAEE"/>
<path fill-rule="evenodd" clip-rule="evenodd" d="M109.955 60.535L100.555 60.24C100.266 60.2307 99.977 60.231 99.6883 60.241C92.5022 60.4881 86.877 66.5139 87.1241 73.7L87.1957 75.8802C87.28 78.5726 87.4081 81.2605 87.5361 83.9441C87.7533 88.5009 87.97 93.045 87.97 97.5764L88.0002 114.011C88.0291 136.931 87.9597 174.677 86.9417 185.61L86.8651 186.468C86.2034 194.215 85.609 205.113 85.9485 219.164L86.0031 221.296C86.0088 221.505 86.0194 221.715 86.0349 221.924C86.5837 229.351 93.0494 234.927 100.476 234.378L102.491 234.232L102.825 234.208C102.861 234.268 102.898 234.328 102.934 234.389C102.965 234.441 102.997 234.492 103.028 234.544C103.354 235.083 103.659 235.586 103.73 235.833C103.909 236.456 103.928 237.162 103.824 238.759L103.72 240.256L103.691 240.742C103.539 243.726 103.884 245.501 105.339 246.837C107.211 248.556 109.195 248.374 113.258 248.001L113.441 247.984L114.487 247.882C115.696 247.766 117.055 247.86 117.982 247.924C118.249 247.943 118.48 247.959 118.661 247.967L119.003 247.984C121.334 248.077 121.704 247.309 121.909 245.412C122.021 244.367 121.875 243.544 121.26 241.422L120.801 239.857L120.648 239.313C119.93 236.662 119.996 235.338 120.931 234.698C121.158 234.543 122.105 234.261 123.198 233.936C124.322 233.602 125.6 233.222 126.404 232.887C137.24 232.441 148.075 232.219 158.911 232.219C170.296 232.219 181.735 232.465 193.229 232.956C193.152 233.081 193.138 233.26 193.219 233.51C193.311 233.793 193.656 233.988 194.098 234.238C195.27 234.901 197.117 235.945 196.687 240L196.689 240.167C196.753 243.364 198.691 245.239 201.808 245.875C203.893 246.301 206.263 246.173 208.845 245.725C210.124 245.503 210.947 244.704 211.34 243.486C211.557 242.813 211.635 242.208 211.686 241.005C211.686 241.005 211.117 234.753 214.279 234.128C214.373 234.134 214.467 234.141 214.561 234.147C214.927 234.172 215.294 234.184 215.661 234.183C215.71 234.195 215.76 234.207 215.811 234.221C215.962 234.262 216.107 234.239 216.237 234.171C216.318 234.167 216.4 234.163 216.481 234.159C224.942 233.68 231.413 226.433 230.934 217.972L230.792 215.418C229.49 191.578 228.838 167.738 228.838 143.898C228.838 127.664 229.577 105.553 231.053 77.5659L231.193 74.9523C231.214 74.5589 231.218 74.1648 231.206 73.771C230.967 66.0707 224.53 60.0225 216.83 60.2619L211.949 60.4118C187.765 61.145 170.363 61.5271 159.744 61.5579L158.044 61.5598C148.13 61.5522 132.1 61.2106 109.955 60.535ZM211.105 233.917C205.732 233.57 200.37 233.276 195.02 233.035C197.582 234.278 198.495 236.6 198.545 239.811L198.547 240C198.547 242.078 200.163 243.435 202.337 243.878C202.565 243.925 202.798 243.975 203.037 244.027C204.539 244.353 206.255 244.725 208.159 244.413L208.448 244.364C209.765 243.878 209.765 239.148 209.765 239.148C209.779 238.763 209.793 238.512 209.815 238.207L209.844 237.863C210.008 236.142 210.368 234.855 211.105 233.917ZM105.965 235.192C105.839 234.752 105.658 234.362 105.425 234.028C109.987 233.719 114.549 233.45 119.11 233.22C118.398 234.014 118.331 235.087 118.304 236.369C118.282 237.473 118.505 238.647 118.974 240.301L119.003 240.4L119.432 241.862C119.958 243.668 120.116 244.423 120.072 245.056L120.062 245.164C119.999 245.751 119.245 246.413 117.97 246.339L117.742 246.327C117.196 246.244 111.813 246.339 111.813 246.339C109.328 246.591 108.131 246.244 106.912 245.125C106.093 244.373 105.874 243.039 106.035 240.483L106.135 239.049C106.262 237.174 106.251 236.296 106.015 235.377L105.965 235.192ZM99.7682 62.5645C100.005 62.5563 100.243 62.556 100.48 62.5637L109.13 62.8357C130.42 63.4884 146.136 63.8366 156.288 63.8802L158.042 63.8847L159.747 63.8828C169.692 63.8539 185.546 63.5184 207.319 62.8762L216.902 62.5856L217.094 62.5812C223.426 62.4871 228.685 67.4905 228.882 73.8432C228.892 74.1713 228.889 74.4998 228.871 74.8277C227.3 104.093 226.514 127.113 226.514 143.898L226.516 146.457C226.561 169.486 227.212 192.516 228.471 215.545L228.613 218.102L228.623 218.317C228.909 225.405 223.457 231.436 216.35 231.838C215.807 231.868 215.263 231.865 214.721 231.828C195.976 230.538 177.372 229.894 158.911 229.894C140.049 229.894 121.187 230.567 102.326 231.913L100.308 232.059L100.124 232.071C94.052 232.421 88.8031 227.838 88.3534 221.753C88.3406 221.58 88.3319 221.406 88.3271 221.233C87.9202 206.224 88.0623 194.692 88.7485 186.663L88.8583 185.434C89.4268 178.864 89.7332 163.772 89.8468 142.266L89.8758 135.511C89.8969 129.142 89.9013 122.638 89.8934 115.431L89.8581 95.4082C89.8376 88.9005 89.7247 82.367 89.5194 75.8075L89.4477 73.6237L89.4431 73.4468C89.3372 67.6187 93.9243 62.7654 99.7682 62.5645ZM220.397 81.2424C220.397 76.1064 216.234 71.9429 211.098 71.9429L108.006 71.9433L107.756 71.949C102.697 72.1319 98.6999 76.3397 98.7977 81.4212C99.3073 107.91 99.2599 128.078 98.6554 141.926L98.4818 145.699C97.2981 172.014 97.3781 193.64 98.7218 210.576L98.8083 211.64C99.2014 216.35 103.065 220.016 107.789 220.162L209.814 223.309C209.939 223.313 210.064 223.314 210.189 223.313C215.325 223.264 219.449 219.061 219.4 213.925C218.831 154.263 218.85 116.438 219.457 100.45L219.495 99.498C219.744 93.5545 219.993 88.4207 220.243 84.0968L220.38 81.8186C220.391 81.6268 220.397 81.4346 220.397 81.2424ZM108.095 74.2677H211.098C214.95 74.2677 218.073 77.3904 218.073 81.2424C218.073 81.3865 218.068 81.5307 218.059 81.6746C217.816 85.5961 217.573 90.2776 217.331 95.72L217.173 99.4009C216.558 114.089 216.499 149.263 216.992 204.98L217.075 213.948C217.112 217.799 214.019 220.952 210.167 220.988C210.117 220.989 210.066 220.989 210.015 220.988C209.972 220.988 209.929 220.987 209.886 220.985L107.861 217.838L107.707 217.831C104.234 217.649 101.416 214.928 101.125 211.446C99.6935 194.291 99.5977 172.128 100.842 144.971L100.959 142.458C101.546 129.391 101.629 110.653 101.21 86.2279L101.122 81.3765C101.048 77.5253 104.11 74.3431 107.961 74.269C108.006 74.2682 108.051 74.2677 108.095 74.2677ZM104.532 67.1377C104.679 68.7182 103.534 69.9866 101.99 69.8804C100.579 69.7833 99.3377 68.6564 99.193 67.2992L99.1844 67.2C99.0947 65.8497 100.129 64.7018 101.517 64.5546L101.622 64.5454C103.102 64.4436 104.391 65.6134 104.532 67.1377ZM101.802 66.1668L101.712 66.1702C101.154 66.2089 100.76 66.6452 100.811 67.1266C100.87 67.6779 101.459 68.2126 102.102 68.2569C102.613 68.292 102.968 67.8988 102.912 67.2882C102.852 66.648 102.35 66.1691 101.802 66.1668ZM93.5744 79.465C91.9656 79.6077 90.8815 78.0599 91.0152 76.2036C91.1463 74.3842 92.3958 72.922 93.9429 73.0592L94.0428 73.0702C95.4638 73.255 96.4454 74.6528 96.3649 76.2196L96.3576 76.3292C96.2251 77.9308 95.0241 79.3364 93.5744 79.465ZM93.8235 74.6821L93.7445 74.6782C93.251 74.6843 92.7083 75.3511 92.6385 76.3206C92.5687 77.2891 92.985 77.8835 93.4306 77.8439C94.0352 77.7903 94.6647 77.0537 94.7357 76.195C94.803 75.3821 94.3453 74.7288 93.8235 74.6821ZM214.04 67.1377C213.893 68.7182 215.039 69.9866 216.582 69.8804C217.993 69.7833 219.235 68.6564 219.379 67.2992L219.388 67.2C219.478 65.8497 218.443 64.7018 217.055 64.5546L216.951 64.5454C215.471 64.4436 214.182 65.6134 214.04 67.1377ZM216.77 66.1668L216.86 66.1702C217.419 66.2089 217.813 66.6452 217.761 67.1266C217.702 67.6779 217.113 68.2126 216.47 68.2569C215.959 68.292 215.604 67.8988 215.661 67.2882C215.72 66.648 216.222 66.1691 216.77 66.1668ZM222.706 76.8049C221.842 75.5216 222.368 73.8955 223.81 73.2324C225.201 72.5929 226.858 73.1239 227.51 74.4566L227.555 74.5519C228.121 75.8275 227.644 77.2973 226.43 77.8948L226.34 77.937C225.092 78.4902 223.495 77.9786 222.706 76.8049ZM226.058 75.1906L226.016 75.111C225.74 74.6374 225.074 74.4424 224.49 74.711C223.933 74.9671 223.77 75.4713 224.056 75.8964C224.416 76.4312 225.173 76.6739 225.68 76.4492C226.123 76.253 226.304 75.6937 226.058 75.1906ZM92.4252 216.091C91.2968 217.207 91.3588 218.915 92.6092 219.825C93.7528 220.658 95.4281 220.593 96.4113 219.646L96.4817 219.576C97.4184 218.599 97.3638 217.055 96.3952 216.05L96.3208 215.975C95.2525 214.946 93.5134 215.014 92.4252 216.091ZM95.1404 217.102L95.2071 217.162C95.6101 217.551 95.6315 218.138 95.2826 218.474C94.8833 218.858 94.0883 218.889 93.5673 218.51C93.1531 218.208 93.1338 217.679 93.5697 217.247C94.0268 216.795 94.719 216.751 95.1404 217.102ZM102.839 228.195C101.588 227.284 101.526 225.576 102.655 224.46C103.743 223.383 105.482 223.316 106.55 224.345L106.625 224.419C107.593 225.424 107.648 226.969 106.711 227.945L106.641 228.016C105.658 228.962 103.982 229.028 102.839 228.195ZM105.437 225.531L105.37 225.471C104.948 225.12 104.256 225.165 103.799 225.617C103.363 226.048 103.382 226.578 103.797 226.879C104.318 227.259 105.113 227.228 105.512 226.843C105.861 226.508 105.84 225.92 105.437 225.531ZM217.323 225.001C216.027 226.307 215.992 228.229 217.373 229.218C218.637 230.123 220.529 229.944 221.661 228.83C222.835 227.675 222.868 225.816 221.714 224.686C220.545 223.542 218.585 223.727 217.323 225.001ZM220.524 225.802L220.59 225.863C221.069 226.332 221.054 227.144 220.52 227.67C219.944 228.237 218.931 228.332 218.32 227.895C217.825 227.54 217.839 226.791 218.478 226.146C219.128 225.492 220.031 225.386 220.524 225.802ZM224.704 222.547C223.259 222.661 222.244 221.369 222.37 219.814C222.492 218.303 223.643 217.104 225.025 217.213C226.384 217.32 227.359 218.561 227.23 219.955C227.105 221.294 226.003 222.444 224.704 222.547ZM224.922 218.837L224.843 218.834C224.452 218.844 224.044 219.295 223.992 219.945C223.94 220.582 224.231 220.952 224.576 220.924C225.065 220.886 225.556 220.374 225.609 219.805C225.657 219.291 225.326 218.869 224.922 218.837Z" fill="#00160A"/>
<path fill-rule="evenodd" clip-rule="evenodd" d="M102.655 224.46C101.526 225.576 101.588 227.284 102.839 228.195C103.982 229.028 105.658 228.962 106.641 228.016L106.711 227.945C107.648 226.969 107.593 225.424 106.625 224.419L106.55 224.345C105.482 223.316 103.743 223.383 102.655 224.46ZM105.37 225.471L105.437 225.532C105.84 225.92 105.861 226.508 105.512 226.843C105.113 227.228 104.318 227.259 103.797 226.879C103.382 226.578 103.363 226.048 103.799 225.617C104.256 225.165 104.948 225.12 105.37 225.471Z" fill="#00160A"/>
<path d="M220.524 225.802L220.59 225.863C221.069 226.332 221.054 227.144 220.52 227.67C219.944 228.237 218.931 228.332 218.32 227.895C217.825 227.54 217.839 226.792 218.478 226.146C219.128 225.492 220.031 225.386 220.524 225.802Z" fill="white"/>
<path fill-rule="evenodd" clip-rule="evenodd" d="M117.902 126.01C117.365 126.197 116.881 126.449 116.283 126.818L115.824 127.106L115.596 127.251C112.128 129.489 109.814 132.273 108.167 136.042L108.079 136.246L108.013 136.226C107.575 136.098 107.179 136.035 106.756 136.07C105.853 136.145 105.011 136.686 104.71 137.695C104.24 139.27 104.434 141.071 105.044 142.916L105.159 143.253C105.753 144.963 106.412 146.123 107.506 146.462C108.961 146.912 113.989 144.919 115.742 143.111C116.992 141.821 116.492 140.243 115.302 139.333L115.192 139.252L115.077 139.172L114.947 139.088L115.034 138.932C115.095 138.824 115.159 138.716 115.225 138.606C115.936 137.427 116.825 136.312 117.725 135.523C118.072 135.219 118.473 134.941 118.93 134.681C119.637 134.279 122.459 133.172 122.934 132.798C124.459 131.598 124.282 129.861 123.318 128.355C122.718 127.418 121.774 126.54 120.863 126.099C119.905 125.635 118.903 125.663 117.902 126.01ZM119.951 127.982C121.029 128.504 122.59 130.407 121.64 131.153C120.996 131.66 118.345 132.199 116.346 133.949C113.987 136.016 112.289 139.347 112.289 140.162L112.558 140.263C114.029 140.829 114.59 141.293 114.24 141.654C112.679 143.264 108.439 144.56 108.125 144.463C107.816 144.367 105.986 140.738 106.715 138.293C106.813 137.966 107.66 138.214 109.256 139.038C110.693 134.768 112.792 131.558 116.714 129.02L117.213 128.704C118.059 128.172 119.102 127.571 119.951 127.982Z" fill="#00160A"/>
<path fill-rule="evenodd" clip-rule="evenodd" d="M121.077 174.16C112.463 164.747 111.965 148.69 121.27 138.35C127.051 131.925 140.638 127.788 150.146 130.094C155.26 131.335 160.808 136.353 164.337 142.946C168.302 150.353 169.315 158.77 166.557 166.553C164.463 172.462 160.68 176.583 155.653 179.04C151.639 181.001 147.01 181.8 142.503 181.611C134.369 181.268 124.254 177.633 121.077 174.16ZM162.287 144.043C159.047 137.988 153.996 133.421 149.598 132.354L149.336 132.292C140.663 130.325 128.152 134.177 122.998 139.905C114.512 149.335 114.969 164.042 122.792 172.591C125.491 175.541 135.03 178.969 142.601 179.288C146.745 179.462 150.994 178.729 154.632 176.951C159.123 174.757 162.479 171.1 164.366 165.776C166.891 158.648 165.959 150.903 162.287 144.043ZM157.809 166.318C162.954 157.286 155.98 137.784 146.238 136.157C137.082 134.627 133.611 136.848 129.662 140.273L128.898 140.942C121.17 147.775 121.17 162.455 128.72 169.265C130.618 170.976 138.966 175.367 145.372 174.024C149.619 173.133 155.531 170.318 157.809 166.318ZM136.31 138.705C136.795 138.531 137.306 138.387 137.851 138.276C137.777 138.445 137.715 138.625 137.663 138.815C137.375 139.876 137.404 140.785 137.716 142.996L137.928 144.461C137.947 144.59 137.963 144.708 137.979 144.83L138.026 145.202C138.357 148.001 138.056 149.461 136.805 150.267C135.659 151.004 134.533 151.282 131.96 151.581L130.997 151.69C129.81 151.827 129.186 151.922 128.437 152.091L128.097 152.16C127.058 152.378 126.196 152.649 125.527 152.991C125.968 148.992 127.605 145.189 130.438 142.684C133.11 140.322 134.458 139.368 136.31 138.705ZM145.855 138.45C145.479 138.387 145.113 138.331 144.757 138.281C144.831 138.47 144.895 138.671 144.947 138.883C145.164 139.77 145.202 140.557 145.149 142.351L145.123 143.125C145.096 143.87 145.083 144.313 145.08 144.739L145.079 145.249C145.101 147.518 145.457 149.026 146.33 150.048L146.427 150.157L146.465 150.173C146.519 150.195 146.587 150.219 146.669 150.247L146.755 150.274C146.955 150.338 147.206 150.409 147.527 150.493L148.063 150.631L150.355 151.192C150.805 151.303 151.205 151.405 151.588 151.507L152.219 151.677C154.113 152.198 155.565 152.707 156.621 153.274C155.044 146.212 150.701 139.26 145.855 138.45ZM156.875 158.468C157.006 158.385 157.13 158.3 157.246 158.214C157.303 160.848 156.862 163.284 155.789 165.167C154.248 167.871 149.97 170.447 145.792 171.537C145.898 171.27 145.983 170.981 146.049 170.671C146.253 169.717 146.285 168.625 146.205 167.078L146.155 166.246L146.079 165.151C145.936 162.964 145.97 162.049 146.161 161.83C147.019 160.844 148.207 160.467 151.231 160.033L151.932 159.933C154.46 159.563 155.646 159.251 156.875 158.468ZM139.106 170.404C139.137 170.797 139.268 171.197 139.479 171.575C138.407 171.348 137.291 171.023 136.154 170.607C133.611 169.676 131.146 168.322 130.277 167.539C127.52 165.051 125.933 161.297 125.516 157.344C126.23 157.673 127.175 157.951 128.348 158.229L128.528 158.271C129.001 158.381 129.486 158.483 130.057 158.596L131.69 158.913C135.345 159.664 137.232 160.535 138.094 161.697L138.181 161.819C138.752 162.652 138.91 163.594 138.956 166.042L138.982 167.786C139.002 168.83 139.034 169.522 139.106 170.404ZM141.855 138.374L141.96 138.384C142.947 138.502 143.155 139.417 143.039 142.869L142.999 144.065C142.99 144.426 142.986 144.717 142.986 145.035C142.987 147.199 143.246 148.881 143.942 150.227C143.812 150.158 143.664 150.119 143.507 150.119L143.348 150.121L143.309 150.122L143.291 150.115C143.024 150.016 142.732 150.047 142.496 150.186L142.473 150.201L142.391 150.214C140.363 150.552 138.347 151.763 137.267 153.368C136.107 155.089 136.165 156.968 137.487 158.577C136.229 157.913 134.559 157.38 132.356 156.915L131.645 156.772C131.226 156.691 130.704 156.591 130.704 156.591L130.284 156.508C129.878 156.427 129.518 156.351 129.173 156.272L129.001 156.233C127.952 155.989 127.123 155.739 126.544 155.478L126.452 155.436C126.273 155.351 126.132 155.269 126.031 155.197L126.018 155.186L126.043 155.16C126.115 155.089 126.224 155.008 126.372 154.922C126.88 154.629 127.717 154.36 128.865 154.139L129.156 154.076C129.666 153.971 130.167 153.896 130.949 153.803L132.217 153.658C135.102 153.322 136.438 152.991 137.937 152.026C140.122 150.62 140.539 148.421 140.079 144.753L140.028 144.366C140.002 144.176 139.974 143.979 139.937 143.726L139.792 142.735C139.533 140.892 139.496 140.102 139.666 139.425L139.682 139.364C139.89 138.601 140.418 138.285 141.855 138.374ZM139.694 160.344C139.721 160.379 139.748 160.415 139.775 160.451C140.763 161.784 140.99 162.961 141.047 165.968L141.07 167.556C141.088 168.55 141.114 169.205 141.17 169.963L141.191 170.236C141.235 170.773 142.152 171.628 143.165 171.434C143.955 171.284 144.26 169.991 144.111 167.112L144.091 166.752L143.975 165.063C143.793 162.298 143.851 161.379 144.482 160.578C142.969 161.147 141.209 161.12 139.694 160.344ZM146.923 158.831C147.861 158.476 149.055 158.236 150.714 157.993L151.613 157.865C153.715 157.558 154.73 157.307 155.591 156.801L155.751 156.703C156.725 156.083 156.818 155.96 156.385 155.61L156.245 155.501C155.479 154.925 154 154.349 151.87 153.752L151.421 153.628C150.935 153.496 150.436 153.368 149.848 153.222L147.401 152.622C146.939 152.505 146.569 152.408 146.268 152.319C148.159 154.319 148.472 156.57 147.172 158.492L147.099 158.598C147.042 158.678 146.984 158.755 146.923 158.831ZM142.764 152.038L142.896 152.019L142.989 152.075C146.031 153.924 146.708 155.939 145.583 157.52C144.464 159.093 142.007 159.636 140.244 158.519C138.2 157.224 137.861 155.815 138.809 154.407C139.61 153.217 141.212 152.276 142.764 152.038Z" fill="#00160A"/>
<path d="M174.775 148.459C174.783 148.132 174.806 147.876 174.833 147.685C175.031 147.629 175.327 147.562 175.748 147.502C176.639 147.376 177.771 147.324 179.082 147.321C180.382 147.318 181.771 147.364 183.169 147.412C183.253 147.415 183.338 147.418 183.422 147.421C184.715 147.466 186.02 147.511 187.179 147.513C188.506 147.514 189.859 147.519 191.223 147.523C194.567 147.535 197.983 147.546 201.282 147.512C201.44 147.511 201.66 147.506 201.931 147.501C202.99 147.478 204.82 147.44 206.704 147.501C207.883 147.539 209 147.614 209.886 147.742C210.297 147.802 210.611 147.866 210.835 147.927C210.931 148.174 211.035 148.56 211.113 149.095C211.273 150.198 211.28 151.624 211.112 153.058C210.942 154.507 210.616 155.777 210.224 156.625C210.081 156.933 209.967 157.114 209.892 157.214C204.177 157.79 194.723 157.584 187.054 157.416C186.186 157.397 185.342 157.379 184.528 157.362C183.471 157.34 182.387 157.411 181.401 157.487C181.15 157.507 180.908 157.526 180.672 157.546C179.938 157.605 179.269 157.659 178.616 157.687C177.758 157.723 177.099 157.703 176.602 157.62C176.478 157.599 176.376 157.576 176.293 157.554C176.207 157.295 176.108 156.964 176 156.567C175.698 155.461 175.373 153.995 175.132 152.498C174.887 150.982 174.749 149.545 174.775 148.459ZM210.743 147.731C210.743 147.731 210.745 147.733 210.747 147.737C210.745 147.733 210.743 147.731 210.743 147.731ZM209.797 157.323C209.797 157.322 209.802 157.317 209.812 157.31C209.802 157.319 209.797 157.323 209.797 157.323ZM174.907 147.33C174.914 147.309 174.919 147.3 174.919 147.301C174.919 147.301 174.916 147.312 174.907 147.33Z" stroke="#421EB7" stroke-width="5.36509"/>
<path fill-rule="evenodd" clip-rule="evenodd" d="M191.226 145.066L191.226 145.066C194.04 145.076 196.889 145.085 199.68 145.068L201.229 145.055C201.362 145.054 201.559 145.05 201.808 145.044C204.137 144.995 211.01 144.85 212.521 145.998C214.994 147.874 214.009 159.689 210.474 160.073C204.607 160.711 194.748 160.494 186.986 160.324H186.986C186.11 160.304 185.261 160.286 184.447 160.269C183.317 160.246 182.101 160.344 180.9 160.442C178.207 160.66 175.59 160.872 174.199 159.689C173.481 159.079 170.716 147.467 172.869 145.872C174.515 144.653 179.234 144.817 183.474 144.965C184.527 145.001 185.55 145.037 186.49 145.05L186.491 145.049L186.492 145.05C186.719 145.053 186.94 145.055 187.156 145.055C188.497 145.057 189.857 145.061 191.226 145.066ZM184.321 147.32C184.55 147.327 184.758 147.334 184.951 147.34C185.108 148.303 185.126 149.994 185.013 152.487L184.93 154.288C184.857 155.972 184.83 157.117 184.878 157.953L184.332 157.942C183.569 157.932 182.796 157.966 181.735 158.044L180.161 158.167C177.842 158.338 176.64 158.312 176.035 158.098L175.992 158.081L175.957 157.978C175.858 157.688 175.745 157.315 175.629 156.886L175.553 156.604C175.252 155.455 174.964 154.092 174.753 152.78C174.495 151.18 174.366 149.747 174.392 148.675L174.396 148.538C174.41 148.181 174.441 147.885 174.486 147.664L174.494 147.627L174.573 147.601C174.972 147.474 175.678 147.345 176.624 147.271C177.801 147.179 179.205 147.168 181.152 147.217L182.794 147.267L184.321 147.32ZM191.732 158.097L187.237 158.003C187.213 157.739 187.195 157.415 187.189 157.04L187.188 156.96C187.181 156.371 187.193 155.809 187.234 154.82L187.365 151.915C187.444 149.918 187.446 148.469 187.314 147.38L196.932 147.402C197.446 147.402 197.941 147.401 198.421 147.399C198.274 150.291 198.508 155.351 198.809 158.176C197.998 158.175 197.155 158.171 196.281 158.162L194.619 158.144C193.702 158.131 192.767 158.116 191.732 158.097ZM201.17 158.169C204.743 158.139 207.611 158.023 209.835 157.802L210.043 157.781L210.071 157.752C210.189 157.617 210.328 157.401 210.47 157.112L210.523 157C210.941 156.097 211.271 154.781 211.441 153.325C211.61 151.883 211.609 150.423 211.441 149.269C211.363 148.736 211.255 148.3 211.132 147.994L211.097 147.912L211.071 147.858L210.978 147.829C210.729 147.755 210.388 147.684 209.97 147.622C209.146 147.499 208.085 147.417 206.844 147.374C205.69 147.333 204.517 147.327 203.203 147.345L201.253 147.38L200.699 147.384C200.681 147.699 200.667 148.073 200.662 148.492L200.661 148.628C200.652 149.761 200.692 151.189 200.772 152.769L200.789 153.088C200.856 154.328 200.944 155.609 201.038 156.736L201.096 157.392C201.121 157.672 201.146 157.933 201.17 158.169ZM190.932 151.307L191.144 151.611C191.386 151.952 191.615 152.254 191.833 152.52C191.54 153.157 191.387 153.873 191.339 154.794C191.321 155.129 191.578 155.414 191.913 155.432C192.248 155.449 192.534 155.192 192.552 154.857C192.579 154.326 192.644 153.889 192.76 153.501C193.432 154.089 194.02 154.307 194.639 154.318L194.758 154.318C195.094 154.318 195.366 154.047 195.366 153.711C195.366 153.397 195.127 153.138 194.82 153.107L194.758 153.104L194.657 153.104C194.26 153.095 193.861 152.928 193.317 152.379C193.494 152.131 193.707 151.886 193.963 151.623L194.614 150.979C194.852 150.743 194.854 150.359 194.618 150.12C194.382 149.882 193.997 149.881 193.759 150.117L193.214 150.654C192.949 150.919 192.716 151.173 192.513 151.429L192.292 151.129C192.178 150.972 192.059 150.802 191.933 150.619C191.744 150.343 191.365 150.273 191.089 150.463C190.813 150.652 190.742 151.03 190.932 151.307ZM207.514 150.729L207.52 150.358C207.523 150.023 207.253 149.749 206.918 149.746C206.582 149.743 206.308 150.013 206.305 150.348C206.302 150.717 206.293 151.047 206.277 151.343C205.966 151.245 205.631 151.164 205.263 151.092L204.511 150.952C204.181 150.89 203.863 151.106 203.801 151.435C203.738 151.765 203.955 152.083 204.284 152.145L205.184 152.315C205.543 152.39 205.857 152.474 206.142 152.58C205.998 153.34 205.761 153.701 205.437 153.931L205.353 153.987L205.303 154.025C205.066 154.222 205.013 154.57 205.189 154.83C205.376 155.108 205.754 155.182 206.032 154.994L206.131 154.927C206.637 154.572 207.003 154.062 207.231 153.199C207.544 153.456 207.843 153.782 208.163 154.207C208.364 154.475 208.745 154.528 209.013 154.326C209.281 154.125 209.334 153.744 209.133 153.476C208.578 152.74 208.05 152.232 207.452 151.867C207.483 151.525 207.504 151.147 207.514 150.729Z" fill="#00160A"/>
<path fill-rule="evenodd" clip-rule="evenodd" d="M181.02 150.677L180.925 151.035C180.814 151.438 180.703 151.8 180.589 152.125C181.082 152.624 181.471 153.244 181.831 154.093C181.962 154.401 181.818 154.758 181.509 154.889C181.2 155.02 180.844 154.876 180.713 154.567C180.505 154.078 180.295 153.689 180.053 153.363C179.623 154.146 179.145 154.552 178.567 154.774L178.455 154.815C178.14 154.93 177.791 154.768 177.677 154.452C177.569 154.157 177.705 153.832 177.982 153.698L178.04 153.674L178.135 153.639C178.505 153.495 178.823 153.202 179.146 152.5C178.895 152.328 178.61 152.17 178.281 152.011L177.448 151.628C177.144 151.488 177.011 151.127 177.151 150.823C177.292 150.518 177.652 150.385 177.957 150.525L178.653 150.843C178.992 151.002 179.298 151.162 179.576 151.332C179.663 151.049 179.752 150.73 179.844 150.373C179.928 150.049 180.259 149.853 180.584 149.937C180.909 150.021 181.104 150.352 181.02 150.677Z" fill="#3A70C1"/>
</svg>
