<svg width="300" height="300" viewBox="0 0 300 300" fill="none" xmlns="http://www.w3.org/2000/svg">
<rect width="300" height="300" fill="white"/>
<path fill-rule="evenodd" clip-rule="evenodd" d="M193.165 63.981C218.978 58.2027 242.893 65.0583 255.746 84.6402C268.6 104.222 265.237 135.295 262.453 149.01C259.669 162.726 252.606 175.288 243.839 186.195C227.557 206.452 205.553 221.953 180.955 230.321C156.356 238.689 129.649 240.405 104.015 236.171C89.6349 233.797 44.6532 222.163 34.9433 187.056C25.2334 151.949 19.0882 121.943 40.1151 109.755C61.1421 97.5662 75.7067 106.733 86.1161 111.242C134.747 132.303 167.352 69.7593 193.165 63.981Z" fill="#3A70C1"/>
<path fill-rule="evenodd" clip-rule="evenodd" d="M229.513 96.8641C233.654 96.5443 238.118 96.7512 241.492 99.1723C244.866 101.593 246.399 106.91 243.628 110.004C246.761 108.779 250.443 110.856 252.012 113.831C253.581 116.806 253.499 120.371 253.027 123.701C251.858 131.948 248.496 139.874 243.379 146.447C243.143 147.14 242.908 147.833 242.673 148.526C248.721 150.085 272.34 159.257 265.958 181.869C259.577 204.481 231.707 213.088 228.854 215.794C223.882 220.511 216.293 220.834 209.442 220.616C192.599 220.082 175.807 217.941 159.368 214.233C157.971 213.918 156.2 213.726 155.395 214.911C149.563 223.484 137.369 224.251 127.027 223.504C113.743 222.546 100.535 220.531 87.5696 217.485C80.2151 215.758 72.4053 213.352 67.8237 207.346C62.4824 200.343 63.0992 190.634 63.9659 181.869C60.4553 183.821 54.6327 184.878 46.4981 185.041C41.7086 184.064 38.7211 182.328 37.5354 179.832C32.1137 168.421 30.2545 153.716 37.006 142.468C37.8171 141.117 38.7529 139.786 40.0735 138.926C41.4736 138.014 43.1806 137.714 44.8448 137.567C51.4089 136.986 58.1437 138.518 63.8103 141.882C63.7597 123.464 63.7091 105.047 63.6585 86.6301C63.6556 85.5754 63.6702 84.4563 64.2325 83.564C65.0458 82.2734 66.7118 81.8733 68.2114 81.5934C81.8523 79.047 95.648 77.3296 109.497 76.4539C114.022 76.1677 120.215 77.4271 120.235 81.9611C120.314 99.3247 120.393 116.688 120.472 134.052C120.491 138.185 120.756 137.839 122.693 136.641C121.475 136.768 121.747 134.703 122.669 133.899C126.113 130.897 131.131 130.787 135.698 130.834C145.916 130.938 156.133 131.043 166.351 131.147C176.251 131.249 188.123 132.504 192.605 141.332C192.475 138.708 194.852 136.232 197.479 136.257C200.344 136.283 202.74 133.798 203.576 131.058C204.412 128.318 204.043 125.374 203.667 122.534C199.048 118.061 197.839 110.459 200.842 104.774C203.846 99.0889 210.808 95.8031 217.105 97.0981C221.173 97.9346 225.373 97.1839 229.513 96.8641ZM110.955 182.037C110.819 185.693 110.675 189.398 109.599 192.894L110.955 182.037ZM106.722 137.172C107.673 137.45 108.849 138.293 108.35 139.149C112.481 139.562 111.248 139.371 111.433 134.503C111.622 129.563 111.638 124.101 108.404 120.362C105.542 117.054 100.875 116.019 96.5167 115.647C91.4295 115.212 86.2878 115.421 81.2525 116.266C78.7957 116.679 76.1346 117.389 74.7088 119.432C73.9109 120.575 73.6173 121.987 73.3829 123.362C72.4609 128.768 72.1729 134.282 72.5268 139.755C83.1181 134.827 95.5102 133.891 106.722 137.172ZM198.638 173.466C198.897 173.204 199.29 173.141 199.654 173.091C201.11 172.89 202.565 172.69 204.021 172.49C200.68 170.981 198.656 167.398 198.051 163.783C197.446 160.168 198.037 156.472 198.633 152.855C196.497 155.233 196.651 158.821 196.93 162.005C197.543 168.975 198.38 173.727 198.638 173.466ZM171.157 207.797C171.444 206.866 172.418 206.366 173.132 205.703C174.416 204.509 174.893 202.705 175.312 201.002C176.76 195.118 178.217 189.163 178.198 183.104C178.194 181.82 178.129 180.501 178.554 179.29C178.979 178.079 180.044 176.984 181.328 176.977C182.682 176.971 183.005 175.093 182.884 173.745C182.467 169.096 182.049 164.448 181.632 159.799C181.499 158.315 181.363 156.816 180.912 155.395C179.246 150.142 172.827 146.965 167.64 148.828C167.005 149.056 166.835 149.858 166.763 150.529C165.965 157.964 165.166 165.4 164.368 172.835C164.226 174.156 165.932 174.999 167.22 174.672C168.508 174.345 169.491 173.339 170.604 172.614C171.718 171.889 173.287 171.472 174.31 172.32C175.465 173.279 177.176 172.214 178.18 171.097C179.184 169.98 180.491 168.634 181.918 169.1C180.244 170.701 178.569 172.303 176.895 173.905C176.339 174.436 175.849 175.497 176.551 175.811C178.475 175.129 180.215 173.933 181.541 172.38C182.154 172.361 182.183 173.324 181.841 173.833C180.552 175.752 177.517 176.179 176.736 178.355C174.912 183.433 169.225 186.806 163.894 185.97C162.801 185.799 162.256 187.237 162.124 188.336C161.6 192.718 161.075 197.099 160.55 201.481C160.429 202.489 160.317 203.555 160.732 204.481C161.424 206.027 163.277 206.612 164.919 207.028C167.089 207.578 169.284 208.131 171.503 208.371C172.437 208.472 172.433 208.13 171.157 207.797ZM84.6875 199.763C87.7888 200.802 91.0713 201.154 94.3236 201.5C95.7027 201.646 97.1715 201.777 98.4088 201.151C99.8652 200.413 100.641 198.814 101.268 197.307C104.761 188.899 106.755 179.871 107.129 170.774C107.182 169.481 105.527 168.911 104.236 168.824C93.9315 168.132 84.0764 172.662 74.7438 177.086C74.2965 177.298 73.8178 177.54 73.5968 177.983C73.432 178.313 73.4406 178.699 73.4529 179.068C73.62 184.094 73.8309 189.3 76.0785 193.798C76.6855 195.012 77.4576 196.182 78.5508 196.987C79.213 197.475 79.9709 197.814 80.7224 198.149C82.0266 198.729 83.3337 199.31 84.6875 199.763ZM151.35 181.164C152.724 173.777 153.692 166.315 154.249 158.822C154.439 156.258 154.579 153.652 154.025 151.142C153.47 148.632 152.133 146.193 149.948 144.84C148.601 144.006 147.025 143.632 145.465 143.354C142.62 142.846 139.725 142.616 136.835 142.667C134.285 142.713 131.609 143.024 129.527 144.497C128.838 144.984 128.213 145.622 127.962 146.427C127.71 147.232 127.922 148.221 128.62 148.694C130.385 149.89 131.105 152.126 131.436 154.232C131.766 156.338 131.846 158.543 132.806 160.447C133.3 161.428 134.01 162.285 134.754 163.094C138.789 167.481 144.052 170.726 149.784 172.362C150.792 172.65 152.074 173.272 151.861 174.298C155.031 176.298 151.298 181.447 151.35 181.164ZM142.614 202.951C143.781 202.242 144.573 201.062 145.269 199.887C148.225 194.904 150.164 189.319 150.931 183.576C140.299 183.528 129.73 179.516 121.744 172.497C121.47 173.594 121.523 174.742 121.56 175.872C121.793 182.926 121.375 190.002 120.311 196.979C120.058 198.642 121.052 200.305 122.418 201.288C123.784 202.27 125.466 202.692 127.119 203.01C130.843 203.727 134.649 204.022 138.439 203.885C139.881 203.833 141.382 203.7 142.614 202.951ZM209.706 142.105C209.086 140.612 208.621 138.928 207.335 137.947C206.05 136.967 203.629 137.446 203.553 139.062C204.826 138.827 205.798 140.398 205.582 141.674C205.365 142.949 204.437 143.964 203.701 145.027C202.683 146.497 201.986 148.16 201.298 149.81C199.659 153.735 199.021 158.074 199.461 162.305C199.719 164.795 200.402 167.354 202.086 169.207C203.771 171.061 206.658 171.987 208.877 170.827C210.783 169.831 211.734 167.635 212.171 165.529C212.608 163.423 212.686 161.218 213.512 159.232C215.036 155.568 218.793 153.355 222.51 151.965C216.922 151.206 211.867 147.313 209.706 142.105ZM194.256 146.069C194.504 147.029 194.848 147.965 195.281 148.857C195.541 147.599 195.958 146.374 196.52 145.219C195.951 145.154 195.379 145.123 194.807 145.127C194.669 145.128 194.522 145.133 194.405 145.207C194.14 145.375 194.177 145.766 194.256 146.069ZM126.909 145.08C126.557 145.363 126.351 145.972 126.722 146.229C127.291 145.66 127.86 145.09 128.429 144.521C128.311 144.375 128.14 144.273 127.956 144.24C127.73 144.631 127.261 144.797 126.909 145.08Z" fill="white"/>
<path d="M225.4 141C226.615 141 227.6 140.015 227.6 138.8C227.6 137.585 226.615 136.6 225.4 136.6C224.185 136.6 223.2 137.585 223.2 138.8C223.2 140.015 224.185 141 225.4 141Z" fill="#FFB61D"/>
<path d="M212.8 138.8C213.463 138.8 214 138.263 214 137.6C214 136.937 213.463 136.4 212.8 136.4C212.137 136.4 211.6 136.937 211.6 137.6C211.6 138.263 212.137 138.8 212.8 138.8Z" fill="#FFB61D"/>
<path fill-rule="evenodd" clip-rule="evenodd" d="M99.1702 107.231C102.77 107.253 106.37 107.276 109.97 107.299C110.139 107.3 110.32 107.305 110.456 107.405C110.733 107.609 110.622 108.086 110.337 108.278C110.051 108.471 109.68 108.462 109.336 108.45C106.168 108.341 102.99 108.505 99.8503 108.942C99.3728 109.008 98.8691 109.078 98.4225 108.896C97.9759 108.715 97.6343 108.18 97.8398 107.744C98.0546 107.288 98.6666 107.227 99.1702 107.231ZM87.1319 106.877C87.36 107.105 87.2507 107.522 86.9973 107.721C86.7438 107.92 86.4044 107.959 86.0839 107.992C82.8924 108.315 79.7009 108.638 76.5094 108.961C76.132 108.999 75.7417 109.036 75.3806 108.92C75.0195 108.804 74.6928 108.492 74.6842 108.112C74.6754 107.721 75.0077 107.389 75.3786 107.264C75.7495 107.139 76.1525 107.174 76.5427 107.205C79.8128 107.462 83.1147 107.314 86.3486 106.764C86.6194 106.718 86.9373 106.683 87.1319 106.877ZM86.6848 100.751C86.9233 100.943 86.8384 101.356 86.5991 101.547C86.3599 101.739 86.0342 101.77 85.7287 101.795L75.4794 102.603C75.0957 102.633 74.6982 102.662 74.3362 102.531C73.9743 102.4 73.6569 102.063 73.6776 101.679C73.6987 101.289 74.0582 100.987 74.4372 100.895C74.8161 100.803 75.2128 100.872 75.5986 100.929C79.0772 101.443 82.6145 100.974 86.1164 100.656C86.3128 100.638 86.5313 100.627 86.6848 100.751ZM100.999 98.7202C103.138 98.9934 105.306 99.035 107.453 98.8439C108.307 98.768 109.339 98.7323 109.824 99.439C109.248 99.9044 108.457 99.9705 107.718 100.017C105.269 100.171 102.82 100.326 100.371 100.48C99.8128 100.515 99.1165 100.473 98.8864 99.9627C98.6799 99.5048 99.0433 98.9542 99.5101 98.7687C99.9769 98.5833 100.501 98.6566 100.999 98.7202ZM82.5234 96.1019C82.526 96.4718 82.0625 96.6314 81.6965 96.685L76.3142 97.4739C75.9301 97.5302 75.5331 97.5859 75.158 97.4858C74.7828 97.3856 74.4321 97.0872 74.397 96.7005C74.3541 96.2271 74.7985 95.8276 75.2625 95.7244C75.7265 95.6213 76.2073 95.7292 76.6787 95.7899C78.3044 95.9994 79.9445 95.6421 81.5827 95.5858C81.9836 95.572 82.5206 95.7008 82.5234 96.1019ZM108.494 94.8136C108.91 94.8601 109.338 95.1086 109.449 95.5126C108.709 96.0719 107.732 96.1737 106.808 96.2556C105.227 96.3957 103.646 96.5358 102.065 96.676C101.508 96.7253 100.951 96.7747 100.394 96.824C99.987 96.8601 99.5634 96.8942 99.181 96.7496C98.7985 96.6051 98.4718 96.2256 98.5287 95.8208C98.6184 95.1828 99.4558 95.0172 100.1 95.031C102.49 95.0824 104.91 95.4431 107.251 94.9619C107.662 94.8776 108.077 94.767 108.494 94.8136ZM110.593 88.7786C98.8783 90.3582 86.8674 89.5402 75.3138 92.0392C74.6286 92.1874 73.6723 92.1947 73.4951 91.5164C73.511 90.7172 74.5447 90.4287 75.3421 90.3718C86.5814 89.5703 97.8208 88.7687 109.06 87.9671C109.72 87.9201 110.645 88.1195 110.593 88.7786Z" fill="#E7EAEE"/>
<path fill-rule="evenodd" clip-rule="evenodd" d="M69.3848 210.211C69.5072 211.629 67.5535 212.109 66.131 212.114C58.7377 212.144 51.3518 213.515 44.4408 216.141C43.3861 216.542 42.2573 217.047 41.7439 218.052C41.0642 219.383 41.8061 221.085 43.0086 221.972C44.2111 222.859 45.746 223.129 47.2207 223.369C85.5516 229.611 124.453 232.346 163.28 231.532L163.904 231.518C168.382 231.414 172.952 231.174 177.055 229.401C173.659 227.02 170.262 224.64 166.866 222.26C172.745 221.086 178.811 221.922 184.777 222.511C198.432 223.859 212.217 223.886 225.877 222.593C224.916 224.13 222.801 224.343 220.989 224.382C203.806 224.752 186.602 224.141 169.488 222.555C171.721 224.024 173.954 225.493 176.187 226.963C176.996 227.495 177.891 228.171 177.938 229.138C178.008 230.592 176.222 231.318 174.786 231.555C170.02 232.343 165.172 232.468 160.342 232.539C122.623 233.09 84.8565 230.391 47.5988 224.481C45.7808 224.193 43.8972 223.871 42.3813 222.827C40.8654 221.783 39.832 219.797 40.469 218.07C41.1026 216.352 43.0303 215.546 44.7707 214.977C52.7353 212.376 61.0248 210.771 69.3848 210.211ZM120.235 81.9611C120.314 99.3247 120.393 116.688 120.472 134.052C120.491 138.185 121.305 143.414 125.302 144.467C130.824 141.917 137.049 140.91 143.094 141.588C146.554 141.976 150.147 143.022 152.49 145.598C155.703 149.132 155.708 154.454 155.363 159.218C154.664 168.875 153.286 178.482 151.244 187.947C152.867 187.844 154.522 188.495 155.639 189.675C153.918 190.463 151.867 190.496 150.121 189.764C151.32 196.264 146.025 202.677 139.683 204.539C133.341 206.401 126.458 204.645 120.495 201.795C119.935 203.973 122.849 205.253 125.074 205.582C130.721 206.417 136.368 207.251 142.015 208.086C135.041 208.295 128.044 207.725 121.196 206.387C119.935 208.173 122.791 209.976 124.949 210.325C130.673 211.252 136.396 212.178 142.12 213.104C135.655 213.061 129.193 212.63 122.78 211.814C126.858 215.494 132.426 217.472 137.912 217.191C134.817 218.209 131.379 218.147 128.323 217.02C132.146 222.141 139.969 223.089 145.682 220.225C151.395 217.361 155.125 211.502 156.949 205.377C158.774 199.253 158.951 192.78 159.275 186.398C159.871 174.617 161.012 162.852 163.076 151.237C164.466 143.416 167.879 134.091 175.746 132.986C161.731 132.34 147.703 131.992 133.674 131.941C129.411 131.926 124.116 132.623 122.693 136.641C121.475 136.768 121.747 134.703 122.669 133.899C126.113 130.897 131.131 130.787 135.698 130.834L166.351 131.147C176.251 131.249 188.123 132.504 192.605 141.332C192.475 138.708 194.852 136.232 197.479 136.257C200.344 136.283 202.74 133.798 203.576 131.058C204.412 128.318 204.043 125.374 203.667 122.534C199.048 118.061 197.839 110.459 200.842 104.774C201.692 103.166 202.947 99.3319 209.957 96.8641C214.63 95.2189 219.25 95.3998 223.816 97.4068C232.39 95.7488 238.282 96.3373 241.492 99.1723C246.307 103.425 246.399 106.91 243.628 110.004C246.761 108.779 250.443 110.856 252.012 113.831C253.581 116.806 253.499 120.371 253.027 123.701C251.858 131.948 248.496 139.874 243.379 146.447L242.673 148.526C255.052 151.717 265.066 162.658 267.151 175.271C263.035 165.994 257.464 156.17 247.865 152.877C245.699 155.149 243.472 157.52 242.455 160.489C241.438 163.459 241.987 167.211 244.566 169C242.946 169.375 241.326 169.751 239.706 170.126C240.246 171.083 240.785 172.039 241.324 172.996C235.203 177.649 234.499 186.451 234.536 194.141C234.573 201.83 234.433 210.502 228.854 215.794C223.882 220.511 216.293 220.834 209.442 220.616C192.599 220.082 175.807 217.941 159.368 214.233C157.971 213.918 156.2 213.726 155.395 214.911C149.563 223.484 137.369 224.251 127.028 223.504C113.743 222.546 100.535 220.531 87.5696 217.485C80.2151 215.758 72.4053 213.353 67.8237 207.346C62.4824 200.343 63.0992 190.634 63.9659 181.869C58.7 184.797 52.4571 185.931 46.4981 185.041C52.7796 180.934 55.8257 173.078 55.8829 165.573C55.9401 158.068 53.4352 150.794 50.6482 143.826C44.5078 147.388 41.277 154.895 41.7575 161.977C42.2379 169.06 45.9956 175.633 51.0373 180.63C44.8222 176.708 40.7097 169.642 40.3693 162.301C40.0289 154.959 43.47 147.543 49.2954 143.062C48.3645 139.879 43.562 139.49 41.0449 141.65C38.5279 143.809 37.738 147.315 37.0905 150.568C35.8941 156.579 34.6928 162.729 35.5621 168.796C36.4313 174.862 39.7824 180.935 45.3977 183.389C42.7735 185.281 39.2782 182.558 37.5354 179.832C30.4679 168.78 30.2545 153.716 37.006 142.468C37.8171 141.117 38.7529 139.786 40.0735 138.926C41.4736 138.014 43.1806 137.714 44.8448 137.567C51.4089 136.986 58.1437 138.518 63.8103 141.882C63.7597 123.464 63.7091 105.047 63.6585 86.6301C63.6556 85.5754 63.6703 84.4563 64.2326 83.564C65.0458 82.2734 66.7118 81.8733 68.2114 81.5934C81.8523 79.047 95.648 77.3296 109.497 76.4539C114.022 76.1677 120.215 77.4271 120.235 81.9611ZM110.986 77.5635C96.3029 78.2547 81.6729 80.0698 67.2661 82.9876C66.653 83.1118 66.0037 83.2568 65.558 83.6959C64.9509 84.2939 64.904 85.2414 64.896 86.0936C64.7239 104.432 64.7967 122.773 65.1142 141.11C66.8773 140.67 68.6403 140.23 70.4034 139.791C69.7142 136.028 69.0221 132.215 69.3167 128.401C69.6114 124.587 71.011 120.708 73.8897 118.189C77.0053 115.463 81.3532 114.692 85.4831 114.402C89.4546 114.123 93.4501 114.188 97.4105 114.595C101.453 115.011 105.712 115.908 108.629 118.739C112.842 122.827 112.91 129.45 112.692 135.317C112.113 150.89 111.534 166.464 110.955 182.037C110.819 185.693 110.675 189.398 109.599 192.894C108.523 196.39 106.388 199.714 103.157 201.429C99.9865 203.113 96.1929 203.065 92.6261 202.66C89.2208 202.273 85.8483 201.598 82.5564 200.644C80.5568 200.065 78.556 199.367 76.8566 198.165C71.2332 194.185 70.5684 186.245 70.4318 179.357C68.2726 178.967 66.1617 180.611 65.2702 182.615C64.3787 184.62 64.4182 186.898 64.4735 189.092C64.6117 194.563 64.8249 200.308 67.618 205.015C71.9275 212.277 80.9794 214.96 89.244 216.694C103.913 219.772 118.807 221.779 133.768 222.694C127.091 219.294 121.171 213.474 119.763 206.114C119.381 204.115 119.339 202.068 119.3 200.033C118.52 160.242 117.741 120.451 116.961 80.6591C116.912 78.1426 113.5 77.4452 110.986 77.5635ZM167.905 142.894C167.533 143.799 167.264 144.804 167.511 145.751C167.758 146.699 168.679 147.526 169.644 147.365C173.969 146.645 178.632 148.775 180.918 152.516C182.804 155.603 183.066 159.38 183.279 162.992L185.213 195.89C185.42 199.405 185.522 203.274 183.337 206.036C180.502 209.619 175.179 209.739 170.631 209.294C166.879 208.927 162.932 208.303 160.019 205.91C160.122 207.303 159.716 208.728 158.894 209.857C157.88 211.251 159.517 213.085 161.111 213.745C163.056 214.55 165.172 214.83 167.26 215.101C176.825 216.343 186.395 217.54 195.971 218.693C203.342 219.58 210.83 220.439 218.158 219.248C213.522 217.947 209.086 215.937 205.052 213.308C203.04 211.997 201.094 210.499 199.721 208.527C197.48 205.309 197.008 201.221 196.635 197.317C195.527 185.71 194.702 174.076 194.161 162.428C193.762 153.837 191.007 145.367 186.276 138.185C185.43 136.901 184.395 135.568 182.9 135.211C176.953 133.789 170.225 137.236 167.905 142.894ZM140.637 217.237C141.141 217.323 141.659 217.436 142.075 217.734C142.491 218.032 142.781 218.562 142.653 219.057C142.524 219.553 141.871 219.879 141.458 219.577C141.002 219.244 140.395 219.232 139.852 219.078C139.309 218.925 138.739 218.474 138.837 217.918C138.961 217.213 139.931 217.117 140.637 217.237ZM119.694 217.447C120.319 217.577 121.052 218.023 120.924 218.649C120.811 219.201 120.128 219.385 119.569 219.46C118.943 219.544 118.274 219.621 117.705 219.346C117.137 219.07 116.768 218.294 117.141 217.784C117.393 217.44 117.863 217.348 118.289 217.331C118.76 217.312 119.233 217.351 119.694 217.447ZM157.137 210.486C156.543 210.915 156.135 211.546 155.716 212.146C153.805 214.884 151.383 217.264 148.612 219.126C148.682 219.42 149.122 219.346 149.383 219.195C152.591 217.336 154.881 214.265 157.078 211.278C157.258 211.034 157.406 210.625 157.137 210.486ZM185.824 136.528C187.535 138.549 189.26 140.59 190.512 142.923C191.87 145.454 192.632 148.257 193.246 151.062C196.681 166.753 195.764 183.067 197.991 198.974C198.392 201.844 198.923 204.776 200.417 207.26C202.166 210.17 205.07 212.187 208.028 213.854C210.421 215.202 212.918 216.386 215.546 217.184C219.724 218.454 224.743 218.543 227.946 215.574C229.745 213.907 230.691 211.529 231.43 209.191C234.598 199.168 234.946 188.271 232.425 178.067C232.488 184.17 233.281 190.259 233.099 196.359C232.918 202.46 231.666 208.742 228.08 213.68C227.369 214.659 226.546 215.597 225.472 216.154C224.059 216.886 222.379 216.872 220.798 216.679C218.037 216.342 215.338 215.508 212.869 214.228C210.993 213.257 209.257 212.036 207.576 210.757C205.621 209.271 203.702 207.67 202.332 205.631C200.975 203.611 200.218 201.251 199.618 198.892C195.236 181.67 198.369 163.091 193.169 146.097C191.944 142.092 189.816 137.795 185.824 136.528ZM81.2847 212.297C91.4006 213.858 101.516 215.42 111.632 216.981C111.376 217.65 110.451 217.674 109.741 217.579C101.09 216.423 92.4384 215.267 83.7871 214.112C82.8091 213.981 81.8311 213.85 80.8531 213.72C80.3888 213.658 79.8124 213.49 79.7538 213.025C79.6711 212.37 80.6324 212.196 81.2847 212.297ZM198.633 152.855C196.497 155.233 196.651 158.821 196.93 162.005C197.543 168.975 198.156 175.945 198.768 182.915C198.797 183.241 198.832 183.585 199.023 183.851C199.336 184.285 199.941 184.361 200.475 184.398C207.748 184.911 215.021 185.423 222.293 185.936C221.75 186.795 220.524 186.808 219.51 186.73C212.663 186.201 205.788 186.03 198.923 186.217C198.805 189.737 199.324 193.278 200.447 196.617C200.934 198.064 202.809 198.372 204.334 198.434C210.152 198.669 215.969 198.905 221.786 199.14C222.054 199.743 221.114 200.119 220.455 200.112C214.475 200.043 208.496 199.974 202.516 199.905C201.697 199.896 201.401 201.056 201.709 201.815C202.516 203.798 205.084 204.225 207.22 204.359L220.589 205.196C220.895 205.215 220.958 205.695 220.735 205.904C220.512 206.113 220.173 206.119 219.867 206.113L204.214 205.781C208.262 210.597 213.938 214.02 220.087 215.351C221.412 215.638 222.817 215.826 224.104 215.401C225.644 214.893 226.78 213.585 227.669 212.228C232.385 205.033 232.072 195.775 231.59 187.186L231.043 177.45C231.234 177.188 231.626 177.097 231.913 177.248C232.024 176.771 231.403 176.488 230.921 176.399C220.282 174.445 209.364 172.488 198.717 174.397C198.376 174.257 198.38 173.727 198.638 173.466C198.897 173.204 199.29 173.141 199.654 173.091C201.11 172.89 202.565 172.69 204.021 172.49C200.68 170.981 198.656 167.398 198.051 163.783C197.446 160.168 198.037 156.472 198.633 152.855ZM146.343 212.041C147.29 212.218 148.384 212.507 148.754 213.397C147.699 214.116 146.314 214.043 145.041 213.941C144.691 213.913 144.308 213.87 144.062 213.62C143.627 213.176 143.952 212.358 144.512 212.089C145.072 211.819 145.732 211.927 146.343 212.041ZM74.1698 205.537C85.0685 208.962 96.3623 211.127 107.755 211.976C108.639 212.042 109.826 212.463 109.657 213.333C97.608 211.97 85.633 209.956 73.8014 207.303C73.0464 207.133 72.0777 206.596 72.3589 205.875C72.6059 205.241 73.5211 205.334 74.1698 205.537ZM114.089 210.823C114.645 210.822 115.183 211.012 115.703 211.21C115.967 211.311 116.258 211.441 116.361 211.705C116.579 212.267 115.804 212.669 115.21 212.777C114.811 212.849 114.411 212.922 114.012 212.994C113.675 213.055 113.312 213.114 113.002 212.968C112.498 212.732 112.367 212.005 112.656 211.529C112.945 211.054 113.532 210.825 114.089 210.823ZM165.41 209.622C170.231 210.539 175.169 210.591 180.076 210.64C180.456 210.643 180.558 211.241 180.287 211.507C180.016 211.772 179.592 211.784 179.213 211.777C174.632 211.687 170.045 211.204 165.478 211.564C164.981 211.603 164.464 211.65 163.997 211.475C163.53 211.3 163.132 210.828 163.221 210.337C163.297 209.914 163.71 209.618 164.132 209.536C164.554 209.454 164.988 209.541 165.41 209.622ZM176.301 134.047C170.843 134.862 166.257 139.72 165.758 145.216C165.292 150.35 163.875 155.342 162.866 160.397C159.627 176.629 160.61 193.452 157.746 209.755C158.792 207.851 159.074 205.634 159.338 203.477L166.282 146.609C166.466 145.096 166.655 143.566 167.199 142.142C168.684 138.249 172.524 135.804 176.301 134.047ZM151.483 207.699C151.78 207.794 152.085 207.918 152.283 208.159C152.481 208.4 152.531 208.789 152.314 209.014C152.151 209.183 151.895 209.213 151.66 209.234C150.893 209.302 150.126 209.37 149.359 209.437C148.945 209.474 148.517 209.509 148.122 209.378C147.727 209.248 147.371 208.906 147.36 208.49C147.341 207.786 148.209 207.432 148.912 207.386C149.778 207.33 150.655 207.436 151.483 207.699ZM167.64 148.828C167.005 149.056 166.835 149.858 166.763 150.529L164.368 172.835C164.226 174.156 165.932 174.999 167.22 174.672C168.508 174.345 169.491 173.339 170.604 172.614C171.718 171.889 173.287 171.472 174.31 172.32C175.465 173.279 177.176 172.214 178.18 171.097C179.184 169.98 180.491 168.634 181.918 169.1C180.244 170.701 178.569 172.303 176.895 173.905C176.339 174.436 175.849 175.498 176.551 175.811C178.475 175.129 180.215 173.933 181.541 172.381C182.154 172.361 182.183 173.324 181.841 173.833C180.552 175.752 177.517 176.179 176.736 178.355C174.912 183.433 169.225 186.806 163.895 185.97C162.801 185.799 162.256 187.237 162.124 188.336C161.6 192.718 161.075 197.099 160.55 201.481C160.43 202.489 160.317 203.555 160.732 204.481C161.424 206.027 163.277 206.612 164.919 207.028C168.003 207.81 171.138 208.597 174.318 208.484C177.497 208.372 180.785 207.235 182.799 204.772C182.241 204.047 180.999 204.976 180.187 204.557C179.392 204.147 179.815 202.782 180.667 202.514C181.52 202.246 182.421 202.672 183.213 203.087C183.71 202.116 184.222 201.077 184.12 199.991C184.017 198.905 183.021 197.831 181.957 198.075C181.259 198.235 180.974 197.024 181.537 196.581C182.101 196.137 182.91 196.281 183.607 196.447C183.646 193.826 183.685 191.204 183.723 188.583C183.731 188.048 183.733 187.486 183.479 187.015C183.226 186.544 182.625 186.214 182.143 186.447C181.486 186.763 180.916 185.644 181.356 185.063C181.795 184.481 182.625 184.406 183.354 184.38C183.41 182.052 183.26 179.719 182.905 177.418C180.161 178.793 179.681 182.42 179.405 185.477C178.874 191.338 177.806 197.151 176.219 202.819C175.864 204.088 175.464 205.387 174.633 206.41C173.802 207.434 172.433 208.13 171.157 207.797C171.444 206.866 172.418 206.366 173.132 205.703C174.416 204.509 174.893 202.705 175.312 201.002C176.76 195.118 178.217 189.163 178.198 183.104L178.196 182.698C178.186 181.544 178.174 180.374 178.554 179.29C178.979 178.079 180.044 176.984 181.328 176.977C182.682 176.971 183.005 175.093 182.884 173.745C182.467 169.096 182.049 164.448 181.632 159.799C181.499 158.315 181.363 156.816 180.912 155.395C179.246 150.142 172.827 146.965 167.64 148.828ZM188.065 205.522C188.701 205.692 189.319 206.347 189.054 206.95C188.802 207.526 188.009 207.558 187.383 207.499C187.076 207.47 186.75 207.433 186.51 207.239C186.091 206.9 186.15 206.181 186.543 205.811C186.936 205.441 187.544 205.382 188.065 205.522ZM111.613 204.877C112.031 204.968 112.467 205.09 112.768 205.395C113.069 205.699 113.168 206.242 112.869 206.549C112.625 206.799 112.231 206.804 111.881 206.792C111.378 206.774 110.876 206.756 110.373 206.739C110.082 206.728 109.77 206.712 109.537 206.538C109.037 206.166 109.256 205.296 109.793 204.98C110.329 204.664 111.004 204.745 111.613 204.877ZM72.8727 200.316C75.6874 201.625 78.7797 202.196 81.8377 202.728C88.0282 203.807 94.2373 204.778 100.461 205.642C101.332 205.763 102.297 205.934 102.828 206.635C100.417 206.8 98.0084 206.398 95.6259 205.998C87.772 204.679 79.9181 203.36 72.0642 202.042C71.241 201.903 70.178 201.446 70.3384 200.627C70.5284 199.656 71.9755 199.899 72.8727 200.316ZM121.744 172.497C121.47 173.594 121.523 174.742 121.56 175.872C121.793 182.926 121.375 190.002 120.311 196.979C120.058 198.642 121.052 200.305 122.418 201.288C123.784 202.27 125.466 202.692 127.119 203.01C130.843 203.727 134.649 204.022 138.439 203.885C139.881 203.833 141.382 203.7 142.614 202.951C143.781 202.242 144.573 201.062 145.27 199.887C148.225 194.904 150.164 189.319 150.931 183.576C140.299 183.528 129.73 179.516 121.744 172.497ZM149.552 200.465C150.278 200.705 151.003 200.944 151.729 201.184C151.971 201.263 152.231 201.356 152.375 201.567C152.617 201.923 152.382 202.443 152.006 202.655C151.631 202.866 151.175 202.855 150.745 202.837C149.961 202.806 149.095 202.74 148.548 202.178C148.001 201.616 148.189 200.404 148.971 200.353C149.169 200.34 149.363 200.403 149.552 200.465ZM187.603 200.57C188.035 200.639 188.491 200.719 188.823 201.002C189.156 201.286 189.292 201.848 188.986 202.159C188.862 202.285 188.691 202.35 188.525 202.407C187.882 202.631 187.168 202.81 186.533 202.566C185.898 202.323 185.464 201.483 185.864 200.932C186.231 200.426 186.986 200.472 187.603 200.57ZM74.7438 177.086C74.2965 177.298 73.8178 177.54 73.5968 177.983C73.432 178.313 73.4406 178.699 73.4529 179.068C73.6201 184.094 73.8309 189.3 76.0785 193.798C76.6855 195.012 77.4576 196.182 78.5508 196.987C79.213 197.475 79.9709 197.814 80.7224 198.149C82.0266 198.729 83.3338 199.31 84.6875 199.763C87.7888 200.802 91.0713 201.154 94.3236 201.5C95.7027 201.646 97.1715 201.777 98.4088 201.151C99.8652 200.413 100.641 198.814 101.268 197.307C104.761 188.899 106.755 179.871 107.129 170.774C107.182 169.481 105.527 168.911 104.236 168.824C93.9315 168.132 84.0765 172.662 74.7438 177.086ZM108.729 170.409C108.465 170.757 108.432 171.222 108.406 171.658C107.789 181.946 105.229 192.114 100.899 201.467C105.024 199.379 108.097 195.325 108.993 190.79C109.302 189.231 109.365 187.635 109.427 186.047C109.623 181.039 109.819 176.032 110.015 171.024C110.025 170.76 110.027 170.469 109.859 170.265C109.582 169.928 108.994 170.061 108.729 170.409ZM110.438 195.467C110.961 195.495 111.453 195.713 111.962 195.839C112.417 195.952 112.555 196.601 112.3 196.996C112.046 197.39 111.556 197.562 111.091 197.627C110.605 197.695 110.083 197.67 109.666 197.413C109.249 197.156 108.978 196.619 109.145 196.159C109.323 195.666 109.914 195.438 110.438 195.467ZM187.903 194.107C188.393 194.208 188.812 194.511 189.215 194.807C189.434 194.967 189.667 195.147 189.738 195.409C189.829 195.742 189.609 196.102 189.306 196.269C189.002 196.435 188.638 196.447 188.293 196.419C187.803 196.38 187.296 196.259 186.926 195.934C186.556 195.61 186.368 195.041 186.599 194.607C186.833 194.165 187.414 194.005 187.903 194.107ZM71.4823 178.549C71.3484 178.788 71.3754 179.08 71.4063 179.352L72.1334 185.754C72.528 189.228 73.0447 192.973 75.4731 195.488C75.878 195.296 75.6495 194.688 75.3943 194.319C73.4273 191.481 73.0484 187.871 72.7294 184.433C72.5424 182.417 72.3554 180.401 72.1684 178.386C71.9804 178.187 71.6161 178.31 71.4823 178.549ZM200.973 191.663C207.644 191.828 214.316 191.993 220.988 192.157C222.009 192.183 223.033 192.208 224.043 192.36C223.832 193.089 222.873 193.227 222.114 193.219C215.423 193.156 208.711 192.742 202.056 193.438C201.488 193.497 200.873 193.556 200.38 193.267C199.886 192.978 199.665 192.185 200.119 191.837C200.354 191.657 200.676 191.656 200.973 191.663ZM182.643 190.352C182.79 190.401 182.94 190.452 183.06 190.549C183.458 190.874 183.31 191.567 182.902 191.88C182.494 192.194 181.944 192.23 181.43 192.242C180.895 192.256 180.271 192.213 179.966 191.773C179.584 191.221 180.039 190.404 180.672 190.18C181.306 189.956 182.004 190.144 182.643 190.352ZM187.52 189.004C188.143 189.072 188.748 189.29 189.27 189.635C189.669 189.898 189.59 190.56 189.227 190.872C188.863 191.183 188.345 191.227 187.867 191.209C187.384 191.192 186.88 191.118 186.489 190.834C186.098 190.549 185.865 189.999 186.074 189.563C186.313 189.066 186.972 188.945 187.52 189.004ZM120.311 173.779C119.948 179.015 119.785 184.265 119.823 189.514C119.825 189.736 119.976 190.051 120.165 189.936C120.567 185.524 120.764 181.093 120.756 176.663C120.754 175.682 120.734 174.664 120.311 173.779ZM113.179 187.212C113.752 187.255 114.257 187.588 114.723 187.922C114.867 188.025 115.015 188.135 115.095 188.293C115.261 188.619 115.062 189.039 114.749 189.229C114.437 189.42 114.05 189.435 113.684 189.418C112.852 189.379 111.806 188.926 111.9 188.099C111.964 187.528 112.607 187.169 113.179 187.212ZM188.906 183.685C189.463 183.913 190.037 184.51 189.749 185.039C189.554 185.397 189.079 185.475 188.672 185.479C188.198 185.484 187.725 185.445 187.258 185.364C186.603 185.249 186.502 184.218 187.011 183.789C187.52 183.36 188.291 183.432 188.906 183.685ZM253.827 173.439C254.056 173.823 254.06 174.296 254.058 174.744C254.038 177.913 254.019 181.081 253.999 184.25C253.997 184.635 253.945 185.101 253.596 185.262C253.294 185.402 252.922 185.206 252.754 184.919C252.586 184.632 252.571 184.284 252.565 183.951C252.516 181.122 252.832 178.226 252.031 175.513C251.793 174.706 251.508 173.699 252.13 173.134C252.617 172.693 253.49 172.875 253.827 173.439ZM172.365 173.072C169.963 174.562 167.436 176.095 164.617 176.298C164.104 176.335 163.873 176.947 163.772 177.451C163.316 179.72 163.065 182.029 163.022 184.342C163.019 184.483 163.021 184.635 163.102 184.751C163.233 184.934 163.497 184.942 163.722 184.93C165.922 184.815 168.151 184.585 170.194 183.762C172.236 182.938 174.095 181.447 174.927 179.408C175.759 177.369 175.359 174.768 173.659 173.368C173.294 173.066 172.767 172.822 172.365 173.072ZM153.977 181.991C154.749 182.194 155.52 182.396 156.292 182.599C156.58 182.675 156.901 182.775 157.039 183.039C157.201 183.351 157.012 183.752 156.718 183.945C156.424 184.137 156.059 184.173 155.709 184.204C155.154 184.254 154.583 184.302 154.051 184.138C153.519 183.974 153.029 183.544 152.968 182.991C152.907 182.437 153.438 181.849 153.977 181.991ZM46.9309 139.767C49.819 140.936 51.9928 143.466 53.3411 146.276C54.6894 149.085 55.3034 152.182 55.8384 155.252C56.724 160.332 57.4292 165.518 56.7835 170.635C56.1378 175.752 53.9989 180.854 50.0337 184.152C52.9221 184.306 56.3708 184.191 57.9388 181.761C58.6425 180.67 60.1571 180.187 61.3622 180.67C60.6045 180.015 61.1764 178.795 61.7387 177.966C64.0426 174.571 65.6234 170.668 66.1883 166.603C67.2836 158.722 64.5298 150.735 60.4437 143.908C57.7926 139.478 51.6087 137.583 46.9309 139.767ZM115.41 180.591C116.006 180.826 115.867 181.811 115.31 182.127C114.753 182.443 114.059 182.301 113.438 182.143C113.149 182.07 112.841 181.983 112.645 181.759C112.186 181.234 112.712 180.346 113.392 180.189C114.071 180.033 114.761 180.336 115.41 180.591ZM136.835 142.667C134.285 142.713 131.609 143.024 129.527 144.497C128.839 144.984 128.213 145.622 127.962 146.427C127.71 147.232 127.922 148.221 128.62 148.694C130.385 149.89 131.105 152.126 131.436 154.232C131.766 156.338 131.846 158.543 132.806 160.447C133.301 161.428 134.01 162.285 134.754 163.094C138.789 167.481 144.052 170.726 149.784 172.362C150.792 172.65 152.074 173.272 151.861 174.298C143.615 172.569 136.095 167.592 131.28 160.678C129.817 165.172 126.931 169.19 123.14 172.012C130.535 178.305 140.104 181.992 149.809 182.287C150.248 182.301 150.746 182.284 151.042 181.959C151.237 181.746 151.298 181.447 151.35 181.164C152.724 173.777 153.692 166.315 154.249 158.822C154.439 156.258 154.579 153.652 154.025 151.142C153.47 148.632 152.133 146.193 149.948 144.84C148.601 144.006 147.025 143.632 145.465 143.354C142.62 142.846 139.725 142.616 136.835 142.667ZM187.503 178.618C188.172 178.618 189.015 178.813 189.133 179.472C189.25 180.128 188.502 180.616 187.841 180.701C187.358 180.762 186.832 180.704 186.449 180.403C186.065 180.102 185.887 179.513 186.153 179.105C186.426 178.686 187.004 178.617 187.503 178.618ZM236.905 165.445C235.678 170.199 234.962 175.067 234.248 179.925C234.212 180.167 234.192 180.452 234.374 180.615C236.287 178.238 238.042 175.735 239.623 173.126C239.779 172.868 239.933 172.531 239.757 172.286C239.361 171.732 238.965 171.178 238.569 170.624C238.275 170.213 237.972 169.672 238.23 169.237C238.441 168.884 238.911 168.81 239.321 168.772L242.681 168.463C242.645 168.254 242.518 168.075 242.395 167.903C241.495 166.651 240.514 165.334 239.073 164.785C238.274 164.48 237.119 164.617 236.905 165.445ZM81.2525 116.266C78.7957 116.679 76.1346 117.389 74.7088 119.432C73.9109 120.575 73.6174 121.987 73.3829 123.362C72.4609 128.768 72.1729 134.282 72.5268 139.755C83.1181 134.827 95.5103 133.891 106.722 137.172C107.673 137.45 108.849 138.293 108.35 139.149C99.9399 136.038 90.5725 135.575 81.8963 137.839C79.0888 138.572 76.3606 139.58 73.5691 140.371C69.4206 141.547 65.1361 142.243 60.8285 142.439C68.6736 153.091 69.6888 168.343 63.3246 179.94C67.2843 179.191 71.0049 177.527 74.6559 175.821C80.107 173.273 85.5345 170.587 91.325 168.952C97.1155 167.316 103.376 166.782 109.12 168.575C109.792 168.784 110.162 167.815 110.189 167.111L111.433 134.503C111.622 129.563 111.638 124.101 108.404 120.362C105.542 117.054 100.875 116.019 96.5167 115.647C91.4295 115.212 86.2878 115.421 81.2525 116.266ZM157.132 176.79C157.293 176.895 157.459 177.027 157.497 177.215C157.573 177.597 157.108 177.841 156.733 177.947C156.189 178.101 155.628 178.256 155.065 178.197C154.502 178.138 153.929 177.814 153.744 177.279C153.559 176.745 153.931 176.043 154.497 176.032C155.425 176.015 156.355 176.283 157.132 176.79ZM237.02 156.27C234.972 157.419 232.524 157.839 230.21 157.438C230.506 158.264 231.804 158.552 231.81 159.429C231.814 159.963 231.311 160.339 231.025 160.79C230.805 161.137 230.71 161.546 230.622 161.948C229.797 165.724 229.324 169.576 229.21 173.439C229.19 174.105 229.356 174.984 230.018 175.057C231.389 175.207 232.68 175.976 233.466 177.11C234.109 173.059 234.753 169.009 235.397 164.958C235.546 164.018 235.672 162.968 235.121 162.192C234.363 161.125 235.023 159.662 235.687 158.534L237.02 156.27ZM115.033 173.778C115.733 173.918 116.528 174.521 116.263 175.183C116.1 175.591 115.607 175.756 115.169 175.78C114.73 175.803 114.273 175.738 113.863 175.894C113.379 176.077 112.81 175.649 112.751 175.135C112.692 174.621 113.049 174.123 113.514 173.897C113.979 173.671 114.526 173.677 115.033 173.778ZM187.495 173.152C187.936 173.213 188.401 173.31 188.721 173.619C189.042 173.927 189.131 174.514 188.789 174.8C188.676 174.894 188.534 174.944 188.394 174.991C187.789 175.198 187.141 175.401 186.52 175.247C185.898 175.094 185.358 174.434 185.573 173.831C185.821 173.136 186.764 173.051 187.495 173.152ZM227.624 164.825C227.157 164.938 226.817 165.327 226.509 165.696L224.655 167.916C224.293 168.35 224.931 168.955 225.494 169.002C226.057 169.049 226.715 168.916 227.116 169.315C227.536 169.733 227.363 170.46 227.019 170.943C226.675 171.425 226.187 171.818 225.979 172.373C225.668 173.202 226.183 174.241 227.03 174.496C227.491 174.635 228.137 174.421 228.141 173.941C228.165 171.13 228.329 168.321 228.633 165.527C228.685 165.05 228.091 164.713 227.624 164.825ZM133.558 166.221C133.913 166.457 134.143 166.835 134.38 167.189C136.413 170.235 139.815 172.328 143.45 172.77C144.291 172.873 145.283 172.975 145.705 173.71C144.913 174.494 143.622 174.398 142.536 174.146C138.688 173.25 135.161 171.027 132.694 167.94C132.3 167.448 131.941 166.699 132.38 166.247C132.677 165.941 133.203 165.985 133.558 166.221ZM225.625 152.764C222.907 153.432 220.193 154.374 217.99 156.101C215.787 157.827 214.149 160.451 214.166 163.249C214.188 166.799 212.444 170.316 209.606 172.447L214.385 173.01C214.944 173.076 215.571 173.123 216.009 172.769C216.65 172.251 216.486 171.256 216.324 170.448C216.162 169.64 216.198 168.572 216.967 168.274C217.922 167.905 218.712 169.23 218.567 170.243C218.423 171.256 217.834 172.231 218.019 173.238C220.282 173.559 222.552 173.83 224.827 174.05C224.375 173.678 224.325 172.974 224.554 172.435C224.783 171.896 225.228 171.483 225.66 171.088C226.121 170.667 225.457 169.926 224.837 169.859C224.216 169.792 223.487 169.941 223.049 169.496C222.506 168.943 222.914 168.015 223.377 167.393C224.278 166.187 225.393 164.732 224.814 163.343C223.401 159.954 223.712 155.897 225.625 152.764ZM121.392 143.506C121.013 152.781 121.065 162.075 121.548 171.346C125.091 169.423 127.68 166.04 129.285 162.342C130.265 160.086 130.921 157.6 130.529 155.172C130.237 153.361 129.38 151.688 128.383 150.149C126.615 147.418 124.307 144.952 121.392 143.506ZM203.553 139.062C204.826 138.827 205.798 140.398 205.582 141.674C205.365 142.949 204.437 143.964 203.701 145.027C202.683 146.497 201.986 148.16 201.298 149.81C199.659 153.735 199.021 158.074 199.461 162.305C199.719 164.795 200.402 167.354 202.086 169.207C203.771 171.061 206.658 171.987 208.877 170.827C210.783 169.831 211.734 167.635 212.171 165.529C212.608 163.423 212.686 161.218 213.512 159.232C215.036 155.568 218.793 153.355 222.51 151.965C216.922 151.206 211.867 147.313 209.706 142.105C209.086 140.612 208.621 138.928 207.336 137.947C206.05 136.967 203.629 137.446 203.553 139.062ZM156.326 168.942C156.718 169.017 157.104 169.132 157.475 169.283C158.086 169.531 158.743 170.219 158.35 170.75C158.135 171.039 157.722 171.074 157.362 171.083C156.704 171.1 155.995 171.102 155.458 170.722C154.921 170.343 154.735 169.424 155.277 169.051C155.574 168.846 155.971 168.874 156.326 168.942ZM185.947 167.376C186.479 167.421 187.008 167.495 187.532 167.597C187.792 167.648 188.071 167.718 188.234 167.926C188.481 168.241 188.326 168.735 188.013 168.986C187.701 169.236 187.285 169.307 186.89 169.368C186.285 169.463 185.641 169.553 185.083 169.301C184.526 169.05 184.145 168.313 184.486 167.805C184.783 167.362 185.415 167.331 185.947 167.376ZM33.8792 164.515C33.4287 164.51 33.2728 165.112 33.2865 165.562C33.3258 166.856 33.5878 168.143 34.0575 169.35C34.1882 169.484 34.34 169.205 34.3218 169.019L33.8792 164.515ZM120.456 167.847C120.174 168 120.067 168.404 120.236 168.676L120.243 168.685L120.237 168.692C120.229 168.701 120.221 168.712 120.213 168.725C120.099 168.896 120.258 169.168 120.463 169.153C120.601 168.732 120.599 168.267 120.456 167.847ZM114.599 166.016C115.209 166.15 115.871 166.656 115.719 167.262C115.619 167.663 115.197 167.899 114.793 167.989C114.389 168.078 113.962 168.072 113.576 168.222C113.086 168.413 112.495 168.017 112.394 167.501C112.293 166.984 112.609 166.445 113.066 166.183C113.522 165.922 114.086 165.902 114.599 166.016ZM118.128 80.5756C118.163 108.499 118.805 136.421 120.052 164.316L120.183 167.2L120.203 166.272C120.239 164.104 120.207 161.935 120.175 159.767C119.803 134.35 119.431 108.933 119.058 83.5159C119.043 82.4517 118.959 81.2405 118.128 80.5756ZM158.066 161.932C158.408 162.035 158.752 162.19 158.973 162.47C159.195 162.749 159.259 163.179 159.039 163.461C158.827 163.734 158.442 163.785 158.098 163.816L156.629 163.946C156.388 163.967 156.13 163.985 155.922 163.864C155.753 163.767 155.641 163.589 155.59 163.401C155.436 162.836 155.818 162.222 156.348 161.969C156.877 161.717 157.505 161.764 158.066 161.932ZM39.7321 140.075C38.2047 141.575 37.4103 143.65 36.6762 145.662C34.6309 151.267 32.6872 157.216 33.6964 163.097C34.0085 163.154 34.1572 162.73 34.1804 162.413C34.5952 156.74 35.729 151.119 37.5458 145.729C38.2391 143.672 39.0729 141.583 40.6128 140.054C40.5917 139.681 39.9982 139.813 39.7321 140.075ZM227.504 152.336C227.238 152.402 227.065 152.653 226.926 152.89C225.612 155.12 224.993 157.753 225.176 160.336C225.252 161.402 225.595 162.63 226.591 163.019C227.4 162.241 228.21 161.464 229.02 160.687C229.148 160.564 229.28 160.436 229.351 160.272C229.528 159.863 229.275 159.407 229.041 159.027C227.888 157.15 227.021 154.77 227.982 152.788C228.102 152.541 227.77 152.271 227.504 152.336ZM244.326 149.93C244.196 149.997 244.097 150.109 244 150.218C241.61 152.921 239.302 155.696 237.08 158.538C236.616 159.132 236.132 159.801 236.178 160.553C236.218 161.222 236.688 161.804 237.258 162.156C237.828 162.508 238.493 162.668 239.144 162.823C239.318 162.865 239.508 162.905 239.672 162.832C239.822 162.766 239.918 162.618 240.005 162.477C241.366 160.284 242.745 158.047 243.388 155.547C243.525 155.014 243.987 154.642 244.356 154.234C245.082 153.432 245.507 152.364 245.532 151.283C245.54 150.917 245.497 150.531 245.285 150.232C245.073 149.934 244.65 149.761 244.326 149.93ZM186.123 160.629C186.452 160.71 186.816 160.835 186.963 161.141C187.224 161.679 186.613 162.24 186.042 162.417C185.599 162.554 185.105 162.601 184.681 162.416C184.256 162.23 183.934 161.762 184.03 161.308C184.201 160.504 185.325 160.431 186.123 160.629ZM115.145 159.454C115.3 159.593 115.444 159.757 115.503 159.957C115.622 160.36 115.34 160.804 114.955 160.97C114.569 161.135 114.118 161.071 113.729 160.913C113.32 160.746 112.921 160.427 112.869 159.987C112.809 159.485 113.264 159.023 113.765 158.95C114.265 158.878 114.768 159.116 115.145 159.454ZM159.435 155.039C159.834 155.201 159.876 155.806 159.601 156.137C159.325 156.469 158.866 156.58 158.436 156.616C158.006 156.652 157.562 156.636 157.16 156.793C156.543 157.035 155.872 156.289 156.019 155.643C156.166 154.997 156.86 154.596 157.522 154.565C158.184 154.534 158.821 154.789 159.435 155.039ZM185.439 154.067C186.005 154.095 186.565 154.243 187.07 154.5C187.289 154.612 187.516 154.766 187.578 155.003C187.707 155.493 187.092 155.83 186.595 155.925C186.154 156.01 185.707 156.06 185.258 156.076C184.704 156.095 184.036 155.988 183.815 155.48C183.644 155.085 183.853 154.601 184.204 154.351C184.555 154.102 185.009 154.046 185.439 154.067ZM221.942 117.903C218.639 118.436 215.321 118.878 211.993 119.228C209.582 119.482 207.312 120.849 205.961 122.861C205.683 123.275 205.492 123.935 205.921 124.188C207.134 122.789 208.78 121.771 210.574 121.311C211.215 121.146 211.917 121.056 212.521 121.326C213.126 121.595 213.558 122.337 213.285 122.94C212.865 123.865 211.525 123.606 210.51 123.544C207.689 123.372 205.249 126.601 206.185 129.268C206.842 126.722 210.477 125.617 212.514 127.279C214.551 128.941 214.302 132.591 212.123 134.063C211.403 134.549 210.478 134.888 210.15 135.693C209.868 136.382 210.139 137.161 210.41 137.855C210.834 138.945 211.258 140.034 211.682 141.124C212.571 143.408 213.516 145.775 215.316 147.439C216.7 148.718 218.496 149.48 220.327 149.926C226.929 151.535 234.362 148.974 238.572 143.639C238.91 143.212 239.679 143.617 239.74 144.159C239.8 144.7 239.43 145.187 239.064 145.59C237.179 147.665 234.803 149.29 232.186 150.296C230.949 150.771 229.479 151.285 229.099 152.555C228.784 153.606 229.446 154.767 230.398 155.314C231.349 155.861 232.508 155.908 233.599 155.788C235.775 155.55 237.879 154.699 239.608 153.358C240.133 152.951 240.64 152.476 240.873 151.854C241.093 151.266 241.043 150.616 240.99 149.99L240.943 149.452C240.739 147.118 240.475 144.757 239.524 142.623C239.066 141.596 238.454 140.634 238.117 139.562C237.701 138.24 237.726 136.821 237.447 135.463C237.167 134.105 236.46 132.695 235.168 132.195C235.509 131.327 236.361 130.781 236.913 130.03C237.464 129.278 237.545 127.965 236.677 127.626C236.262 127.463 235.789 127.603 235.393 127.809C233.725 128.675 232.826 130.794 233.361 132.596C233.71 133.771 231.853 134.56 230.853 133.85C229.853 133.14 229.607 131.788 229.41 130.577C228.645 125.885 227.111 120.827 223.104 118.269C222.754 118.045 222.352 117.837 221.942 117.903ZM114.794 151.187C115.321 151.358 115.847 151.832 115.737 152.375C115.633 152.888 115.043 153.128 114.526 153.216C113.794 153.342 112.84 153.198 112.634 152.484C112.438 151.805 113.149 151.155 113.852 151.08C114.169 151.047 114.491 151.089 114.794 151.187ZM199.289 141.414C198.798 141.88 198.559 142.544 198.336 143.183C197.832 144.624 197.322 146.108 197.38 147.633C197.417 148.616 196.847 149.5 196.441 150.395C196.034 151.29 195.813 152.436 196.451 153.184C197.974 151.903 198.339 149.748 198.674 147.787C199.074 145.442 199.619 143.011 201.135 141.179C200.605 140.759 199.78 140.949 199.289 141.414ZM159.162 147.949C159.554 148.075 159.997 148.327 160.002 148.738C160.008 149.239 159.392 149.47 158.899 149.56C158.652 149.605 158.405 149.65 158.158 149.695C157.529 149.81 156.854 149.921 156.269 149.662C155.684 149.403 155.295 148.613 155.677 148.1C155.924 147.768 156.378 147.677 156.791 147.652C157.591 147.602 158.399 147.704 159.162 147.949ZM101.934 140.716C102.623 141.046 103.393 141.695 103.138 142.414C96.0442 140.867 88.4653 141.632 81.8233 144.565C78.8346 145.885 76.0292 147.63 72.9361 148.682C71.8779 149.042 70.7227 149.318 69.6536 148.992C68.5846 148.666 67.6931 147.531 68.0058 146.458C68.2993 145.451 69.421 144.972 70.4148 144.636C75.3129 142.978 80.2964 141.571 85.3388 140.424C90.8406 139.173 96.8443 138.282 101.934 140.716ZM203.796 140.631C203.29 140.629 202.864 141.001 202.531 141.383C201.723 142.308 201.149 143.419 200.721 144.571C200.191 146.002 199.877 147.513 199.794 149.037C201.261 146.514 202.829 144.05 204.494 141.652C204.783 141.236 204.303 140.633 203.796 140.631ZM194.808 145.127C194.669 145.128 194.522 145.133 194.405 145.207C194.141 145.375 194.177 145.766 194.256 146.069C194.504 147.029 194.848 147.965 195.281 148.857C195.541 147.599 195.958 146.374 196.52 145.219C195.951 145.154 195.379 145.123 194.808 145.127ZM83.6444 141.884C79.4453 143.175 75.2462 144.465 71.0471 145.756C70.5455 145.91 69.9635 146.148 69.8567 146.662C70.1981 147.16 70.8483 147.371 71.4515 147.342C72.0547 147.313 72.6273 147.081 73.1864 146.853C77.4464 145.112 81.7064 143.372 85.9665 141.631C85.2056 141.419 84.3995 141.652 83.6444 141.884ZM127.956 144.24C127.73 144.631 127.261 144.797 126.909 145.08C126.557 145.363 126.351 145.972 126.722 146.229C127.291 145.66 127.86 145.09 128.429 144.521C128.311 144.375 128.14 144.273 127.956 144.24ZM172.26 143.937C175.313 144.254 178.393 144.417 181.45 144.153C182.241 144.085 183.187 144.053 183.656 144.694C183.064 145.297 182.132 145.37 181.287 145.406C178.114 145.542 174.94 145.678 171.767 145.814C171.148 145.841 170.364 145.762 170.163 145.176C170.005 144.714 170.364 144.205 170.815 144.02C171.267 143.835 171.775 143.886 172.26 143.937ZM219.449 140.602C220.187 141.5 220.457 142.764 220.149 143.885C220.074 144.162 219.963 144.434 219.786 144.66C219.322 145.252 218.464 145.427 217.732 145.252C217 145.077 216.373 144.61 215.814 144.106C215.238 143.586 214.698 142.993 214.421 142.268C214.145 141.543 214.177 140.661 214.668 140.059C215.072 139.564 215.725 139.326 216.363 139.279C217.522 139.194 218.71 139.703 219.449 140.602ZM116.555 142.69C116.847 142.926 116.798 143.415 116.549 143.696C116.3 143.976 115.92 144.095 115.556 144.186C115.127 144.293 114.675 144.377 114.244 144.275C113.814 144.172 113.41 143.838 113.357 143.399C113.28 142.761 113.947 142.262 114.582 142.162C115.275 142.053 116.01 142.25 116.555 142.69ZM216.069 140.813C215.746 141.232 215.959 141.987 216.483 142.059C217.088 142.142 217.559 142.778 217.462 143.381C217.385 143.855 217.963 144.25 218.421 144.108C218.879 143.966 219.144 143.452 219.134 142.973C219.124 142.493 218.895 142.046 218.635 141.642C218.349 141.198 217.999 140.766 217.517 140.549C217.034 140.332 216.393 140.395 216.069 140.813ZM214.457 97.8149C210.057 98.6209 205.698 100.543 202.86 104.001C200.022 107.459 199.04 112.634 201.259 116.518C202.043 117.891 203.24 119.088 204.745 119.571C206.25 120.054 208.071 119.699 209.075 118.478C210.214 117.093 212.514 118.421 214.228 117.896C216.6 117.169 219.064 116.747 221.543 116.644C222.131 116.619 222.736 116.615 223.285 116.828C223.88 117.059 224.35 117.522 224.803 117.972C226.371 119.535 227.972 121.143 228.901 123.153C230.374 126.341 230.009 130.228 231.87 133.206C232.087 131.339 232.304 129.471 232.522 127.604C232.603 126.911 232.692 126.191 233.067 125.602C233.442 125.014 234.19 124.601 234.846 124.839C236.003 125.259 237.207 125.71 238.037 126.619C238.868 127.528 239.175 129.042 238.377 129.979C237.605 130.884 238.48 132.192 238.89 133.309C239.6 135.243 238.765 137.454 239.323 139.437C239.785 141.08 241.12 142.307 242.395 143.442C242.768 143.773 243.203 144.127 243.7 144.082C244.116 144.044 244.451 143.733 244.735 143.427C246.43 141.6 247.591 139.284 248.039 136.833C248.221 135.844 247.877 134.403 246.88 134.538C247.153 132.165 249.334 130.549 250.615 128.533C251.996 126.359 252.323 123.685 252.386 121.11C252.449 118.522 252.197 115.709 250.472 113.778C248.4 111.458 244.373 111.285 242.109 113.418C241.545 113.95 240.801 114.653 240.128 114.268C240.656 113.321 241.183 112.375 241.711 111.428C242.571 109.886 243.449 108.287 243.624 106.53C243.969 103.062 241.329 99.7792 238.065 98.5599C234.801 97.3405 231.115 97.8461 227.841 99.0387C227.021 99.3376 226.051 99.9796 226.274 100.824C226.403 101.313 226.898 101.609 227.152 102.046C227.311 102.318 227.295 102.406 227.116 102.626C227.007 102.76 226.812 103.145 226.637 103.07C224.781 100.92 222.773 98.6695 220.052 97.8564C218.248 97.3175 216.309 97.4757 214.457 97.8149ZM193.375 142.154C193.143 142.016 192.698 141.926 192.742 142.192C192.867 142.844 193.454 143.328 194.086 143.527C194.719 143.726 195.398 143.692 196.06 143.657C196.319 143.643 196.595 143.623 196.801 143.466C196.974 143.334 197.069 143.126 197.157 142.927C197.308 142.587 197.459 142.246 197.609 141.905C196.379 141.104 194.638 142.902 193.375 142.154ZM157.834 139.93C158.352 139.968 158.865 140.059 159.365 140.199C159.798 140.32 160.296 140.574 160.317 141.023C160.346 141.614 159.576 141.856 158.986 141.907C158.386 141.959 157.786 142.011 157.185 142.062C156.748 142.1 156.253 142.12 155.932 141.821C155.5 141.419 155.674 140.641 156.142 140.282C156.609 139.923 157.246 139.885 157.834 139.93ZM171.874 139.801C174.745 140.185 177.656 140.278 180.546 140.077C180.885 140.053 181.254 140.034 181.533 140.227C181.812 140.421 181.882 140.921 181.577 141.071C181.485 141.117 181.378 141.122 181.275 141.126C177.781 141.257 174.288 141.389 170.794 141.521C170.475 141.533 170.124 141.535 169.879 141.331C169.441 140.966 169.692 140.185 170.195 139.915C170.699 139.645 171.308 139.725 171.874 139.801ZM199.753 136.955C198.637 137.015 197.503 137.119 196.473 137.551C195.443 137.984 194.519 138.798 194.211 139.872C194.149 140.09 194.125 140.358 194.293 140.511C194.423 140.63 194.619 140.632 194.795 140.625C196.648 140.552 198.493 140.276 200.286 139.804C201.178 139.569 202.253 139.002 202.132 138.088C202.069 137.607 201.653 137.231 201.195 137.071C200.736 136.912 200.238 136.929 199.753 136.955ZM71.067 136.821C70.8892 137.762 70.8457 138.729 70.9383 139.682C71.1687 139.931 71.472 139.445 71.4525 139.107C71.408 138.334 71.2785 137.566 71.067 136.821ZM130.732 135.669C137.155 135.96 143.578 136.25 150.001 136.54C150.6 136.567 151.397 136.797 151.361 137.396C150.595 137.888 149.606 137.786 148.701 137.681C142.975 137.014 137.183 136.922 131.439 137.406C130.944 137.448 130.417 137.489 129.974 137.261C129.532 137.034 129.247 136.427 129.534 136.021C129.785 135.666 130.297 135.65 130.732 135.669ZM115.157 134.996C115.44 135.038 115.734 135.112 115.94 135.311C116.409 135.766 116.119 136.63 115.555 136.96C114.99 137.289 114.291 137.243 113.64 137.187C112.926 137.125 112.694 136.053 113.163 135.511C113.633 134.969 114.448 134.889 115.157 134.996ZM137.747 132.62C148.215 133.163 158.683 133.706 169.151 134.249C169.711 134.278 170.453 134.494 170.424 135.055C168.698 135.365 166.91 135.331 165.197 134.953L166.718 136.262C165.993 136.719 165.221 137.191 164.364 137.21C163.507 137.229 162.574 136.598 162.598 135.741C163.032 135.541 163.465 135.341 163.899 135.14C155.443 134.416 146.947 134.152 138.463 134.349C137.973 134.36 137.451 134.365 137.037 134.102C136.624 133.84 136.414 133.202 136.757 132.851C137.001 132.601 137.398 132.602 137.747 132.62ZM205.528 134.02C205.15 134.04 204.83 134.291 204.538 134.53C204.191 134.814 203.845 135.097 203.498 135.381C203.135 135.678 202.742 136.032 202.721 136.501C202.709 136.755 202.903 137.057 203.151 137C203.22 136.984 203.28 136.942 203.338 136.901C204.164 136.319 204.989 135.737 205.815 135.154C205.983 135.036 206.163 134.901 206.218 134.702C206.318 134.338 205.905 133.999 205.528 134.02ZM218.368 130.97C218.401 131.819 217.979 132.615 217.83 133.451C217.68 134.287 217.965 135.353 218.792 135.548C219.036 135.606 219.107 135.955 218.969 136.165C218.831 136.374 218.571 136.464 218.325 136.509C217.558 136.648 216.651 136.402 216.299 135.708C216.123 135.36 216.109 134.956 216.099 134.566C216.072 133.523 216.046 132.479 216.019 131.436C216.001 130.723 216.08 129.845 216.733 129.557C217.511 129.214 218.335 130.121 218.368 130.97ZM206.982 135.703C206.831 135.773 206.728 135.936 206.73 136.103L206.692 136.112C206.776 136.298 207.077 136.327 207.195 136.161C207.313 135.994 207.185 135.72 206.982 135.703ZM205.538 130.25C205.191 130.259 204.804 130.322 204.599 130.601C204.38 130.9 204.469 131.338 204.694 131.632C204.919 131.927 205.25 132.116 205.559 132.32C206.862 133.179 207.902 134.431 208.508 135.868C208.92 135.326 209.332 134.783 209.744 134.241C210.052 133.836 210.377 133.372 210.312 132.868C210.265 132.503 210.02 132.197 209.76 131.937C208.659 130.835 207.095 130.21 205.538 130.25ZM72.7773 121.856C72.2931 121.896 72.0422 122.44 71.89 122.901C71.6581 123.604 71.4262 124.307 71.1943 125.009C70.941 125.777 70.6858 126.554 70.6163 127.359C70.5703 127.893 70.6067 128.43 70.6432 128.965C70.7571 130.634 70.871 132.304 70.9849 133.974C71.0069 134.296 71.2525 134.742 71.5194 134.559C71.4086 130.295 71.8322 126.016 72.7773 121.856ZM209.705 127.995C209.265 128.163 208.798 128.457 208.735 128.923C208.671 129.389 209.357 129.821 209.623 129.434C209.963 128.939 210.812 129.197 211.092 129.728C211.373 130.258 211.291 130.896 211.286 131.496C211.282 132.096 211.42 132.785 211.943 133.079C212.031 132.276 212.119 131.473 212.206 130.67C212.315 129.679 212.308 128.45 211.437 127.965C210.916 127.675 210.262 127.783 209.705 127.995ZM223.816 127.542C224.529 127.574 225.291 127.822 225.681 128.42C226.071 129.018 225.864 129.998 225.176 130.19C224.195 130.465 223.278 129.083 222.319 129.426C221.719 129.641 221.349 130.484 220.723 130.363C220.336 130.288 220.121 129.823 220.198 129.436C220.275 129.049 220.564 128.738 220.874 128.493C221.699 127.839 222.764 127.495 223.816 127.542ZM114.592 126.836C115.28 126.947 115.953 127.7 115.59 128.294C115.489 128.461 115.323 128.58 115.15 128.671C114.721 128.897 114.192 128.974 113.75 128.777C113.307 128.58 112.996 128.069 113.115 127.6C113.266 127.01 113.991 126.739 114.592 126.836ZM224.934 122.921C225.407 123.371 225.776 124.218 225.246 124.6C224.686 125.004 224.014 124.322 223.478 123.887C222.879 123.4 222.068 123.186 221.306 123.312C220.819 123.393 220.361 123.605 219.872 123.676C219.384 123.747 218.815 123.635 218.549 123.219C218.269 122.783 218.447 122.166 218.832 121.82C219.216 121.473 219.751 121.346 220.266 121.299C221.957 121.145 223.703 121.751 224.934 122.921ZM114.568 121.542C114.991 121.79 115.218 122.374 114.983 122.803C114.673 123.37 113.859 123.362 113.231 123.207C113.005 123.15 112.767 123.076 112.618 122.898C112.261 122.472 112.661 121.804 113.16 121.558C113.598 121.341 114.146 121.295 114.568 121.542Z" fill="#00160A"/>
<path fill-rule="evenodd" clip-rule="evenodd" d="M57.9008 178.593C57.9585 178.754 58.0118 178.933 57.9458 179.09C57.8274 179.372 57.4421 179.382 57.1366 179.38C54.9881 179.363 52.9907 181.208 52.8381 183.351C52.822 183.578 52.5108 183.681 52.3095 183.576C52.1082 183.472 52.0046 183.245 51.9349 183.029C51.5424 181.811 51.7953 180.446 52.4211 179.33C53.0468 178.214 54.0151 177.324 55.067 176.595C55.475 176.313 55.9831 176.041 56.4448 176.224C56.7498 176.344 56.9491 176.635 57.1152 176.918C57.428 177.451 57.6914 178.012 57.9008 178.593ZM56.6528 178.35C56.4637 177.771 55.6963 177.563 55.123 177.768C54.5497 177.972 54.1317 178.46 53.7416 178.927C53.3718 179.37 52.9848 179.853 52.9412 180.428C53.9298 179.381 55.2435 178.646 56.6528 178.35Z" fill="#FFB61D"/>
</svg>
