<svg width="325" height="325" viewBox="0 0 325 325" fill="none" xmlns="http://www.w3.org/2000/svg">
<rect width="325" height="325" fill="white"/>
<path fill-rule="evenodd" clip-rule="evenodd" d="M184.638 269.44C216.024 269.44 243.567 246.093 228.099 214.383C212.631 182.672 270.105 183.696 286.988 161.78C307.577 135.052 301.615 21.5966 169.439 90.7646C148.266 101.845 93.8893 79.366 75.8523 90.5194C54.6209 103.648 24.7496 130.531 54.6209 158.07C69.335 171.634 16.5817 206.842 39.6866 238.379C62.2312 269.152 78.0345 239.817 112.358 246.093C146.682 252.37 161.329 269.44 184.638 269.44Z" fill="#3A70C1"/>
<path d="M148.209 214.273C148.209 214.273 155.436 210.873 158.134 208.508C160.832 206.143 164.186 200.267 164.186 200.267C164.186 200.267 201.029 226.875 225.053 223.08C230.588 222.205 241.373 218.526 242.061 212.044C243.939 194.343 217.954 189.819 223.63 180.843C227.095 175.363 237.858 183.518 237.858 183.518L282.499 205.476C282.499 205.476 267.076 243.492 229.65 245.016C183.611 246.89 148.209 214.273 148.209 214.273Z" fill="white"/>
<path fill-rule="evenodd" clip-rule="evenodd" d="M112.816 65.3923C112.397 65.2278 110.147 62.4726 107.29 61.9711C105.992 61.7433 107.171 63.3962 105.742 63.4111C101.487 63.4554 94.5723 62.656 93.2914 63.4111C92.3394 63.9705 94.436 65.9247 93.2914 66.0145C82.492 66.8609 66.0168 77.6437 62.4424 82.875C61.3048 84.5398 70.5051 81.7152 69.0392 82.5383C67.394 83.462 65.5693 89.5107 64.4783 94.1824C63.723 97.3993 63.2474 101.539 63.0796 106.043C62.9397 109.932 62.9957 110.575 63.5551 112.701C64.1985 115.079 64.7021 115.778 65.5693 115.443C65.877 115.331 66.0168 114.911 66.0168 114.128C66.0168 113.512 66.3525 111.666 66.7721 110.016L67.4995 107.05L67.8072 108.281C68.1988 109.708 70.4927 114.128 72.5627 117.345C72.6744 117.515 73.1547 117.298 73.5879 116.251C73.9826 115.297 73.8224 113.773 74.4929 112.14C76.0203 108.419 79.0194 103.581 82.492 99.7082C87.6243 93.9849 89.3271 87.3613 94.1381 82.0443C103.116 72.1218 114.385 66.008 112.816 65.3923Z" fill="white"/>
<path fill-rule="evenodd" clip-rule="evenodd" d="M69.1668 83.8883C67.7266 85.0464 65.5887 94.4404 65.5521 94.5974C64.7968 97.8144 64.0687 108.986 64.8129 111.101C65.5571 113.216 67.641 105.592 67.641 105.592C67.641 105.592 70.7908 113.771 73.5739 116.013C73.6928 116.109 70.2658 105.894 69.1668 99.9308C67.7162 92.059 69.9865 83.2292 69.1668 83.8883Z" fill="#E7EAEE"/>
<path fill-rule="evenodd" clip-rule="evenodd" d="M122.848 248.409C125.534 247.821 130.065 245.776 131.8 245.076C133.535 244.377 138.821 236.912 140.724 228.492C142.094 222.281 142.794 213.442 142.01 211.959C141.895 211.749 141.472 207.729 142.598 209.041C145.102 211.959 148.074 216.539 157.452 208.332C160.006 206.096 163.391 203.211 162.5 200.661C160.006 193.525 149.195 179.155 147.547 178.067C145.576 176.765 135.615 177.871 120.792 173.496C103.982 168.535 96.9821 153.924 90.4036 155.826C85.0836 157.364 72.3372 166.816 69.1382 172.802C54.036 201.06 72.3372 220.861 76.505 226.548L80.5518 228.296L80.6917 231.904L80.8875 234.17C81.2511 238.506 81.391 238.898 83.3492 240.352C88.2446 244.073 97.8956 247.542 106.623 248.773C110.68 249.332 119.491 249.136 122.848 248.409Z" fill="white"/>
<path fill-rule="evenodd" clip-rule="evenodd" d="M82.1434 230.583L82.3392 232.849C82.7028 237.185 82.8427 237.577 84.8009 239.032C87.6889 241.226 92.2319 243.334 97.264 244.946C100.762 246.066 104.496 246.947 108.075 247.452C112.131 248.011 120.943 247.815 124.3 247.088C125.959 246.729 112.311 236.006 104.271 239.032C98.096 241.355 83.5427 223.632 89.4599 219.002C96.0977 213.808 83.9344 193.321 83.5427 188.874C83.1511 184.426 81.6088 183.363 81.5638 183.519C81.5188 183.675 81.5188 184.207 81.6398 185.49C82.1617 191.016 82.1434 230.583 82.1434 230.583Z" fill="#E7EAEE"/>
<path fill-rule="evenodd" clip-rule="evenodd" d="M80.6861 187.604C81.2734 187.49 81.8421 187.873 81.9564 188.46C84.0677 199.307 92.9981 206.65 108.967 210.49C125.031 214.353 135.973 214.145 141.738 210.021C142.225 209.673 141.862 212.654 141.506 212.883C137.745 215.294 124.961 218.892 109.704 215.64C90.1967 211.482 81.0374 195.079 79.8297 188.874C79.7154 188.287 80.0988 187.718 80.6861 187.604Z" fill="#FFB61D"/>
<path fill-rule="evenodd" clip-rule="evenodd" d="M72.5513 168.034C73.0706 167.737 92.4457 189.942 119.035 194.968C145.624 199.995 152.062 196.798 153.097 189.942C153.186 189.351 153.738 188.943 154.33 189.033C154.921 189.122 155.328 189.674 155.239 190.266C153.928 198.954 141.624 201.021 118.67 197.104C96.005 193.237 80.4656 184.047 72.1491 169.512C71.8519 168.993 72.032 168.331 72.5513 168.034Z" fill="#FFB61D"/>
<path fill-rule="evenodd" clip-rule="evenodd" d="M184.151 166.802C183.423 166.551 182.64 165.991 182.136 165.348L181.297 164.313L184.262 161.376C188.822 156.9 192.319 152.312 195.34 146.857C196.347 145.039 198.893 138.968 198.893 138.381C198.893 138.185 199.201 137.402 199.564 136.591C200.124 135.416 200.543 134.968 201.746 134.297C203.173 133.458 204.795 133.178 205.495 133.653C206.837 134.549 206.837 137.374 205.495 142.241C204.012 147.584 202.026 151.417 197.914 156.928C197.27 157.767 196.067 159.417 195.2 160.564C192.878 163.641 191.368 165.124 189.326 166.271C187.312 167.39 186.137 167.53 184.151 166.802ZM204.236 164.285L206.25 165.18C206.668 165.373 211.275 167.587 216.809 170.246C225.732 174.533 237.064 179.978 237.133 179.978C237.245 179.978 237.77 178.764 237.888 177.349C238.168 174.3 239.203 170.159 240.406 167.278C240.966 165.991 241.413 164.383 241.413 164.243C241.413 164.179 240.958 163.996 240.214 163.696C239.328 163.338 238.031 162.815 236.602 162.131C229.552 158.746 215.761 151.836 214.055 150.801C212.376 149.822 212.041 149.738 212.041 150.382C212.041 151.221 210.334 155.109 209.019 157.207C208.32 158.354 206.949 160.424 205.97 161.795L204.236 164.285ZM236.658 174.943C237.46 175.408 236.07 176.09 235.734 176.202C233.758 176.37 231.431 175.998 229.524 174.887C228.527 174.18 220.678 169.819 215.471 166.926C213.09 165.604 211.262 164.588 210.894 164.369C209.719 163.669 208.6 162.914 208.404 162.69C207.816 161.935 208.376 161.599 210.026 161.739C211.019 161.823 234.925 173.939 236.658 174.943ZM122.944 248.179C125.102 247.707 128.451 246.293 130.584 245.393C131.106 245.173 131.554 244.983 131.895 244.846C133.63 244.146 138.917 236.681 140.819 228.261C142.19 222.051 142.889 213.211 142.106 211.729C141.634 210.87 144.439 213.75 146.528 215.895L146.529 215.896L146.529 215.896L146.533 215.9C147.165 216.549 147.731 217.13 148.12 217.519C160.317 229.632 178.472 239.367 197.326 243.927C206.725 246.22 213.411 247.032 222.391 247.032C237.469 247.032 249.358 244.066 260.156 237.548C260.669 237.239 261.149 236.954 261.607 236.683C265.371 234.455 267.614 233.127 273.751 226.219C280.635 218.47 286.759 200.483 288.801 194.273C289.696 191.475 291.878 180.349 291.878 177.572C291.878 174.285 290.731 172.733 289.165 171.138C286.395 168.425 282.647 167.446 279.541 168.621L278.087 169.18L277.639 167.698C276.996 165.46 275.653 163.669 273.583 162.327C270.506 160.285 270.058 160.145 267.289 160.145C265.135 160.145 264.547 160.257 263.177 160.9L261.582 161.627L261.247 160.62C260.603 158.55 258.445 155.664 256.771 154.83C255.286 154.089 252.715 154.021 250.924 154.354C247.008 155.081 244.21 156.9 243.064 159.445C242.728 160.229 242.308 160.844 242.14 160.844C242.001 160.844 236.49 159.305 229.916 156.396C228.807 155.903 227.765 155.442 226.787 155.008C214.982 149.776 212.423 148.642 212.656 147.221C212.852 146.018 212.796 145.347 212.46 144.312C211.873 142.577 211.201 142.102 209.299 142.102C208.389 142.102 208.027 142.102 207.92 141.936C207.849 141.827 207.89 141.647 207.956 141.346C208.851 137.066 208.824 134.605 207.872 133.038C207.229 132.003 206.474 131.583 204.739 131.332C203.732 131.192 203.257 131.276 202.138 131.891C201.382 132.283 200.739 132.562 200.683 132.507C200.627 132.451 200.823 130.912 201.131 129.094C203.425 115.638 201.652 104.045 195.806 91.7366C195.75 91.6189 195.685 91.4799 195.611 91.3207L195.611 91.3202C193.833 87.5043 186.687 72.1604 166.247 64.4181C165.322 64.0676 164.447 63.7288 163.605 63.4031C156.643 60.7082 152.014 58.9166 140.847 58.9352C128.33 58.956 124.091 60.7255 115.838 64.502C114.691 65.0335 113.684 65.3412 113.6 65.2293C113.516 65.0895 112.985 64.7538 112.453 64.474C111.922 64.1943 110.775 63.4949 109.936 62.9355C107.53 61.313 106.047 60.6416 105.292 60.8095C104.425 61.0332 104.425 61.7606 105.292 62.0963C105.656 62.2361 106.075 62.7117 106.243 63.1872C106.607 64.1943 107.027 64.3062 107.278 63.467C107.39 63.1593 107.558 62.9355 107.642 62.9914C107.673 63.0072 107.778 63.0562 107.938 63.1309L107.939 63.1317L107.94 63.132L107.941 63.1322L107.941 63.1326L107.942 63.133L107.943 63.1333L107.943 63.1333C108.352 63.3247 109.115 63.6821 109.936 64.0824C111.083 64.6419 112.342 65.2293 112.677 65.3692C113.293 65.593 113.097 65.7608 110.439 67.3274C100.061 73.4257 91.6129 82.9088 86.8854 93.7067C86.158 95.3292 85.5146 96.3363 84.8433 96.8958C83.1369 98.3224 79.78 102.379 78.9967 103.973C78.5771 104.84 77.682 106.183 76.9826 106.966C76.3112 107.75 75.5839 108.757 75.3321 109.176C75.1084 109.624 74.8846 109.932 74.8006 109.876C74.7447 109.792 74.8286 108.421 75.0244 106.826C75.444 103.106 75.444 102.127 75.1084 102.043C74.6048 101.903 73.8775 103.861 73.5698 106.295C73.346 107.778 73.2901 110.016 73.4299 112.309L73.5978 115.946L71.6116 112.729C70.9287 111.653 70.2563 110.578 69.7786 109.814L69.7775 109.812L69.7769 109.811L69.7762 109.81L69.7759 109.81C69.4723 109.324 69.2477 108.965 69.1499 108.813C68.4226 107.75 68.003 106.155 68.3107 105.624C68.4785 105.316 68.4506 105.176 68.1708 105.176C67.5834 105.176 66.4365 107.05 65.6812 109.204C65.3175 110.211 64.9538 111.051 64.8419 111.051C64.4223 111.051 64.6182 101.036 65.0657 97.8189C65.9889 91.4688 68.4226 83.6361 69.5136 83.6361C69.7374 83.6361 69.9332 83.5243 69.9332 83.3564C69.9332 82.8529 69.2059 83.0487 68.6184 83.6921C67.3036 85.1188 65.5693 89.5107 64.4783 94.1823C63.723 97.3993 63.2474 101.539 63.0796 106.043C62.9397 109.932 62.9957 110.575 63.5551 112.701C64.1985 115.079 64.7021 115.778 65.5693 115.442C65.877 115.331 66.0168 114.911 66.0168 114.128C66.0168 113.512 66.3525 111.666 66.7721 110.016L67.4995 107.05L67.8072 108.281C68.1988 109.708 70.4927 114.128 72.5627 117.345C73.9894 119.527 74.0174 119.667 74.4929 123.079C74.7447 125.01 75.528 129.704 77.3463 136.926C78.9529 143.308 87.9847 149.638 90.2398 151.218L90.2402 151.218L90.2405 151.219C90.5372 151.427 90.7165 151.552 90.7458 151.585C91.0255 151.892 91.4171 152.06 91.6409 151.976C91.8927 151.892 92.0326 152.004 92.0326 152.312C92.0326 152.592 92.2284 152.955 92.4522 153.123C92.7319 153.319 92.9277 154.074 92.9837 155.389C93.1235 158.019 95.0817 163.054 96.5923 164.704C97.5714 165.767 99.6135 166.215 101.879 165.823C103.362 165.6 103.782 165.432 103.642 165.096C103.558 164.872 104.089 165.152 104.817 165.712C113.321 172.201 121.937 176.09 131.616 177.768C135.364 178.412 141.574 178.775 144.959 178.524C147.952 178.328 147.952 178.328 147.812 178.915C147.617 179.698 147.868 180.174 151.981 187.14C155.254 192.65 155.533 193.014 159.17 196.735C166.891 204.707 175.311 210.889 184.85 215.673C193.83 220.149 208.166 223.869 221.272 225.044C234.378 226.219 243.791 214.19 243.763 211.113C243.707 206.889 243.119 204.12 241.693 201.434C240.294 198.833 239.371 197.937 235.175 195.14C230.503 192.035 227.622 189.489 225.72 186.776C224.517 185.069 224.069 183.139 224.069 182.104C224.069 181.433 224.936 179.922 226.223 179.615C227.398 179.307 227.622 179.335 228.937 179.978C229.72 180.342 231.762 181.293 233.441 182.104C235.147 182.888 236.797 183.671 237.133 183.839C238.123 184.114 238.541 186.051 238.768 187.1L238.768 187.101C238.819 187.335 238.86 187.526 238.895 187.643C239.287 189.098 241.14 190.976 242.336 191.615C244.436 192.738 249.61 192.888 251.037 191.35C251.4 190.958 252.606 190.477 252.854 190.623C253.103 190.768 254.001 191.979 254.001 192.958C254.029 194.637 254.896 196.175 256.743 197.714C260.24 200.623 262.953 201.322 265.694 200.035C267.121 199.364 268.29 199.102 268.29 199.102C268.29 199.102 269.457 200.59 269.527 201.098C270.076 205.073 275.961 206.739 277.527 206.907C277.886 206.943 278.585 206.789 279.295 206.633C280.244 206.425 281.212 206.212 281.416 206.442C281.815 206.892 274.73 218.61 273.751 220.093C264.436 234.08 246.309 242.64 224.125 243.535C209.719 244.122 192.011 240.094 176.654 232.765C166.835 228.037 158.135 222.247 148.82 214.134C147.197 212.736 145.323 211.141 144.651 210.582C143.98 210.05 142.386 208.232 141.155 206.553C139.085 203.756 137.91 202.749 137.91 203.7C137.91 204.12 139.252 206.693 140.791 209.239C141.406 210.246 141.798 210.945 141.658 210.833C141.518 210.722 141.071 212.736 140.651 215.309C139.28 223.562 137.015 231.702 134.721 236.765C133.462 239.507 131.048 241.554 130.321 242.113C127.635 244.155 123.615 245.073 118.048 245.633C110.999 246.332 100.621 244.766 92.7039 241.801C90.6059 241.017 85.2069 238.751 84.8433 238.5C84.8214 238.478 84.6975 237.673 84.5245 236.55C84.4757 236.233 84.4231 235.891 84.3677 235.534C83.3607 228.625 81.962 202.022 81.962 189.713C81.962 184.622 81.906 183.503 81.5703 183.503C80.871 183.503 80.5912 184.174 80.2835 186.58C79.5842 192.063 79.724 220.68 80.4793 226.695L80.6472 228.065L79.6961 227.534C78.2414 226.695 72.7026 221.072 70.7724 218.47C69.1383 216.246 68.1671 213.398 67.4405 211.267C67.2715 210.771 67.1158 210.314 66.968 209.913C62.9117 198.667 64.3384 186.049 69.9332 174.691C74.6888 165.012 80.5353 159.641 89.0953 157.04C90.494 156.62 91.7248 156.172 91.8647 156.061C92.3962 155.557 88.9834 155.809 87.1092 156.396C81.0108 158.27 74.6328 163.39 70.2969 169.936C64.1985 179.111 61.4571 192.65 63.3873 204.204C63.8349 206.945 65.6532 212.876 66.1567 213.295C66.2013 213.34 66.4314 213.822 66.7794 214.552C67.7415 216.571 69.6049 220.48 70.9402 222.247C72.5627 224.457 77.4582 229.268 79.5003 230.751L80.7871 231.674L80.9829 233.94C81.3465 238.276 81.4864 238.667 83.4446 240.122C88.34 243.843 97.991 247.311 106.719 248.542C110.775 249.102 119.587 248.906 122.944 248.179ZM217.495 221.911C201.243 220.484 181.605 212.735 167.394 200.762C161.408 195.699 153.631 185.853 150.554 180.398C149.911 179.279 149.435 178.747 148.875 178.607C148.288 178.44 148.792 178.272 151.197 177.88C161.352 176.146 171.227 171.922 179.199 165.907L180.374 165.04L180.71 165.851C181.465 167.67 184.374 169.516 186.528 169.516C187.396 169.516 190.305 168.201 192.067 166.998L193.27 166.187L194.249 167.166C195.144 168.061 195.312 168.117 196.991 168.117C198.921 168.117 201.243 167.25 202.529 166.019L203.229 165.376L205.215 166.691C206.278 167.446 209.243 169.096 211.789 170.411C215.593 172.369 219.621 174.635 223.454 176.985L224.069 177.377L223.482 178.16C222.866 178.999 221.72 180.594 221.72 183.027C221.72 185.769 224.571 190.694 230.028 194.077C234.315 196.735 241.693 201.962 241.413 209.603C241.379 210.525 240.35 212.82 238.979 214.89C238.084 216.204 235.595 218.163 233.329 219.309C229.468 221.24 222.671 222.359 217.495 221.911ZM68.3387 96.3363C69.094 96.5041 69.5975 96.7559 69.4856 96.8678C69.1219 97.2315 67.1917 97.0636 66.7442 96.616C66.0448 95.9447 66.2127 95.4691 67.1917 95.2733C67.6953 95.1894 68.4506 94.7698 68.8702 94.3502C69.2898 93.9305 69.6534 93.7347 69.6534 93.8746C69.6534 94.2383 68.2548 95.5251 67.5554 95.8048C67.1078 96.0006 67.2477 96.0845 68.3387 96.3363ZM79.4723 96.7839C80.2835 96.3363 80.1157 96.0286 79.1646 96.1684C78.2135 96.3083 78.1575 96.1964 78.7729 95.2453C79.0247 94.8817 79.1646 94.3502 79.1086 94.0704C79.0247 93.7068 78.8289 93.8746 78.3813 94.7698C78.0456 95.4132 77.5701 95.9447 77.3463 95.9447C76.6469 95.9447 76.591 96.5041 77.2624 96.7559C78.1295 97.1196 78.8009 97.1196 79.4723 96.7839ZM69.7933 81.5101C69.1219 81.622 67.0239 82.4612 65.1776 83.3844C63.3034 84.2796 61.7089 85.0348 61.597 85.0069C58.7436 84.6992 62.7159 79.9436 69.9332 75.0761C76.8427 70.4045 81.5144 67.9428 85.8503 66.684C88.5638 65.9007 91.6129 65.7888 92.4801 66.4322C92.9557 66.7959 92.7879 66.8238 90.7178 66.8518C86.242 66.8518 81.0668 69.1457 72.6467 74.7684C68.2827 77.6777 63.2195 81.8458 63.2195 82.5172C63.2195 82.6571 64.0307 82.3773 65.0378 81.9297C67.1917 80.9507 69.4017 80.4471 70.3808 80.6709C71.4158 80.9507 71.192 81.3143 69.7933 81.5101ZM80.6192 83.9159C83.2488 83.3844 83.3607 83.3564 83.3607 83.0767C83.3607 82.9368 82.3536 82.7969 81.0948 82.741L78.8289 82.6571L80.9269 80.2793C82.0739 78.9645 83.4166 77.6497 83.8922 77.342C84.9272 76.6707 84.9831 76.1951 84.1439 75.9154L83.5005 75.7195L84.1999 75.4678C84.5915 75.3279 85.3188 75.272 85.8224 75.3559C86.5776 75.4678 86.7455 75.4118 86.6616 75.0202C86.5776 74.6286 86.2699 74.5446 84.8992 74.5726C80.899 74.6286 79.1925 75.6916 82.3256 76.1951C83.1928 76.335 83.9201 76.5588 83.9201 76.6986C83.9201 76.8105 83.7803 76.9224 83.6124 76.9224C83.0809 76.9224 78.5771 81.4822 78.0176 82.6011C77.1504 84.2516 77.626 84.5033 80.6192 83.9159ZM99.082 73.062C98.2707 73.118 98.0749 73.2578 98.1309 73.6495L98.1395 73.7065C98.1709 73.9134 98.189 74.0322 98.1426 74.0683C98.08 74.1171 97.8999 74.015 97.4769 73.775L97.4036 73.7334C96.8721 73.4537 96.8161 73.3138 97.1238 73.09C97.3196 72.9221 97.8511 72.6704 98.2707 72.5865L99.054 72.3906L98.4666 71.7752C98.1588 71.4116 97.991 71.0759 98.0749 70.964C98.2987 70.7402 101.04 71.0479 101.432 71.3556C101.6 71.4955 101.851 71.4675 102.019 71.2997C102.411 70.908 102.942 71.2157 102.942 71.8312C102.942 72.1669 102.858 72.1948 102.607 71.9431C102.383 71.7193 102.187 71.7193 101.935 71.9151C101.712 72.1109 101.544 72.1109 101.404 71.8871C101.32 71.7472 100.788 71.6074 100.229 71.6074C99.7128 71.6074 99.4687 71.6074 99.4189 71.7057C99.3742 71.794 99.4858 71.9613 99.6974 72.2788C100.144 72.9759 100.117 72.9781 99.0915 73.0612L99.082 73.062ZM94.83 65.621C94.83 65.2573 94.4943 64.6139 94.0747 64.1943L93.2914 63.411L97.4875 63.5789C99.8093 63.6908 102.439 63.9425 103.362 64.1943C104.285 64.4181 105.348 64.5859 105.74 64.5859C106.327 64.5859 106.215 64.474 105.124 63.8866C103.222 62.9075 100.788 62.4319 96.1168 62.0963C90.522 61.7046 87.6966 62.2361 88.2281 63.6348C88.312 63.9146 88.7596 64.0544 89.431 64.0544C90.8017 64.0544 93.0396 64.8657 93.7949 65.621C94.6062 66.4322 94.83 66.4322 94.83 65.621ZM81.1787 139.696C83.4446 142.605 86.4378 145.906 87.8365 147.025C88.6757 147.696 89.403 148.256 89.459 148.256C89.4869 148.256 88.8715 146.969 88.0882 145.403C84.9272 139.108 83.0809 132.842 82.2137 125.625C82.0179 124.03 81.7102 122.688 81.3745 122.128C80.7031 121.009 80.7031 119.555 81.4025 118.184C81.7661 117.457 81.962 116.533 81.962 115.526V113.988L80.6192 115.387C79.3044 116.757 78.0456 117.317 78.0456 116.477C78.0456 115.862 80.1157 112.897 81.2067 111.974C82.0739 111.246 82.1857 110.995 82.4655 108.813C82.6613 107.498 83.1089 105.176 83.4725 103.637C83.8642 102.099 84.088 100.784 84.032 100.728C83.8362 100.532 77.2623 108.082 76.3672 110.491C76.1706 111.02 75.6399 111.946 75.2203 112.505L74.4929 113.439C74.4929 113.439 74.7189 114.747 74.9685 116.39C75.2207 118.05 75.339 119.192 75.4444 120.208C75.5854 121.568 75.7033 122.705 76.0874 124.562C76.535 126.856 76.9826 128.842 77.0945 128.982C77.1784 129.15 77.5421 130.436 77.9057 131.863C78.689 135.024 80.0038 138.157 81.1787 139.696ZM194.697 166.159L194.109 165.572C194.109 165.572 203.859 153.184 205.607 148.619C206.94 145.136 207.724 144.148 208.783 144.148C209.375 144.148 209.859 144.284 210.082 144.619C210.474 145.207 210.851 145.934 210.348 148.424C209.509 152.452 208.222 155.109 204.361 160.844C203.466 162.159 202.319 163.613 201.816 164.117C200.641 165.208 197.998 166.327 196.459 166.579C195.48 166.719 195.2 166.663 194.697 166.159Z" fill="#00160A"/>
<path d="M272.156 193.525C275.637 184.043 275.11 182.022 274.506 181.825C274.506 181.825 273.177 182.58 272.59 184.174C271.499 187.168 267.765 195 266.366 196.399C264.715 198.049 264.715 198.049 263.037 198.049C261.359 198.049 256.518 195.522 255.859 193.03C254.804 189.044 259.344 175.195 259.456 174.411L258.701 173.88C258.197 174.356 251.648 194.217 243.036 189.042C242.049 188.449 239.958 185.657 239.791 184.174C238.859 179.866 243.135 164.802 243.863 161.708C244.514 158.939 247.903 156.368 252.071 156.368C258.477 156.368 257.617 161.968 260.486 163.941C261.758 164.816 263.847 163.23 264.492 163.11C268.1 162.439 269.483 163.22 272.128 165.32C274.17 166.941 275.681 170.148 277.344 171.278C278.268 171.906 279.248 171.048 279.57 170.887C280.886 170.226 283.71 170.719 284.493 171.278C285.641 171.779 288.455 174.484 288.9 176.057C290.914 183.187 284.552 198.994 282.151 201.959C278.175 206.868 268.676 203.007 272.156 193.525Z" fill="white"/>
<path fill-rule="evenodd" clip-rule="evenodd" d="M111.335 167.542C118.999 172.382 126.903 175.543 135.91 176.41C143.016 177.082 152.596 176.158 159.478 173.921C165.268 172.046 173.101 166.854 178.332 162.462C188.487 153.958 194.893 140.675 197.69 126.576C198.082 124.59 198.679 119.597 198.651 114.646C198.651 108.883 196.115 93.1357 188.431 84.0557C172.582 65.3282 146.53 56.892 124.635 64.1002C116.737 66.7005 108.328 71.4115 101.978 77.5658C93.9775 85.3705 88.075 96.0006 85.7252 106.854C83.2635 118.324 86.4658 132.031 92.0326 143.276C96.4804 152.228 103.81 162.759 111.335 167.542ZM186.025 133.737C180.766 149.543 167.059 161.348 149.827 164.928C147.197 165.46 145.379 165.656 141.686 165.712C139.085 165.795 136.483 165.767 135.952 165.712C123.895 164.257 114.719 159.809 106.271 151.361C102.579 147.64 101.012 145.626 98.7183 141.654C95.1097 135.36 93.1795 128.926 92.5921 121.177C90.5779 94.6299 109.572 72.5025 136.315 70.2086C146.805 69.3135 158.443 72.5305 167.282 78.7966C170.555 81.1185 176.486 86.993 178.332 89.7344C179.087 90.8254 186.416 101.539 187.703 107.694C189.354 115.694 188.71 125.709 186.025 133.737Z" fill="white"/>
<path fill-rule="evenodd" clip-rule="evenodd" d="M198.661 114.646C198.661 133.422 189.779 153.95 178.317 162.717C172.848 166.899 165.701 171.964 159.478 173.921C150.357 176.788 135.91 176.41 135.91 176.41C135.91 176.41 150.649 174.44 156.111 172.242C171.773 165.939 180.322 156.263 185.602 146.98C196.023 128.655 198.661 114.19 198.661 114.646Z" fill="#E7EAEE"/>
<path fill-rule="evenodd" clip-rule="evenodd" d="M136.231 162.355C128.762 161.404 121.349 158.746 115.363 154.802C111.81 152.48 106.439 147.025 103.838 143.137C100.117 137.542 97.6553 131.555 96.4524 125.121C95.5852 120.45 95.6132 113.261 96.4804 109.092C97.3756 104.84 98.5225 101.595 100.565 97.4833C102.942 92.7277 105.46 89.231 109.237 85.4545C115.67 79.0205 123.14 74.9363 132.035 72.9781C134.917 72.3627 145.351 71.8592 145.714 72.3347C145.798 72.4746 146.358 72.8383 146.945 73.146C147.533 73.4817 149.099 74.6566 150.386 75.8035C152.316 77.4819 153.183 78.5449 154.862 81.1745C156.009 82.9648 156.932 84.5873 156.932 84.7272C156.932 85.0349 157.827 85.5944 158.331 85.5944C159.03 85.5944 159.506 83.4963 159.645 79.8038C159.729 77.7617 159.897 76.0832 160.009 76.0832C160.401 76.0832 164.709 78.461 166.723 79.8038C170.667 82.4333 174.611 86.1259 177.521 89.9863C178.836 91.7206 179.031 92.1682 179.031 93.2312C179.031 94.2103 179.311 94.9656 180.178 96.4762C182.36 100.281 184.067 105.064 185.102 110.351C185.773 113.904 185.773 120.618 185.074 124.338C183.172 134.577 177.521 144.759 170.164 151.221C163.925 156.676 157.296 160.033 149.463 161.683C146.777 162.271 138.721 162.662 136.231 162.355ZM116.23 143.221C116.482 142.941 116.65 142.521 116.566 142.325C116.54 142.267 116.19 142.102 115.678 141.861L115.677 141.861C114.482 141.299 112.404 140.322 111.504 139.304C107.923 135.22 106.609 132.171 105.797 125.877C105.014 119.75 105.672 115.609 107.084 108.953C107.773 105.705 109.604 103.023 110.743 101.355C111.517 100.22 111.972 99.554 111.53 99.4974C110.439 99.3295 110.272 99.4135 109.125 100.504C106.663 102.854 105.544 104.728 104.369 108.337C102.551 113.988 102.199 129.259 105.797 136.143C109.395 143.027 115.587 143.948 116.23 143.221ZM156.009 119.722C155.534 124.068 153.519 130.353 151.169 133.094C150.078 134.381 146.074 136.591 142.693 136.143C139.428 135.711 136.875 134.185 134.693 130.912C132.818 128.087 131.85 124.657 131.196 120.338C130.066 112.879 135 104.197 137.126 102.043C139.28 99.8331 140.819 99.0498 142.777 99.0218C144.679 99.0218 145.91 99.4414 147.84 100.812C151.365 103.274 156.932 111.278 156.009 119.722ZM118.3 96.5881C118.86 95.9447 118.943 95.637 118.776 94.4341C118.664 93.3151 118.44 92.8676 117.852 92.392C116.817 91.5528 115.531 91.5528 114.58 92.448C113.908 93.0914 113.824 93.3151 113.908 94.8537C113.992 96.5042 114.048 96.6161 114.971 97.1196C116.202 97.791 117.405 97.5951 118.3 96.5881ZM135.756 79.3282C130.72 82.9368 128.538 84.4194 126.273 85.8181C124.482 86.9371 123.923 86.9651 123.923 85.958C123.923 85.4265 124.314 84.839 125.321 83.9159L126.72 82.6291L124.007 82.2655C120.958 81.8738 117.992 81.0346 117.349 80.3912C116.286 79.3002 117.209 79.0485 120.23 79.6079C121.573 79.8317 124.175 80.1115 126.021 80.1674L129.378 80.3073L131.811 78.5449C137.154 74.6845 142.693 72.5026 145.351 73.1739C147.001 73.5656 146.805 74.0132 144.931 74.2369C142.777 74.4887 141.462 75.216 135.756 79.3282Z" fill="white"/>
<path d="M142.945 132.311C142.945 132.171 143.113 132.031 143.337 132.031C143.56 132.031 143.84 132.171 143.924 132.311C144.008 132.479 143.84 132.59 143.532 132.59C143.197 132.59 142.945 132.479 142.945 132.311Z" fill="white"/>
<path d="M144.623 132.059C144.623 131.751 145.323 131.471 146.106 131.471C146.722 131.499 146.722 131.499 146.19 131.891C145.575 132.367 144.623 132.451 144.623 132.059Z" fill="white"/>
<path d="M140.288 131.332C140.204 131.108 140.092 130.716 140.008 130.492C139.924 130.213 140.064 130.073 140.427 130.073C140.735 130.073 140.987 130.241 140.987 130.464C140.987 130.688 141.071 131.052 141.155 131.304C141.267 131.611 141.183 131.751 140.875 131.751C140.623 131.751 140.343 131.555 140.288 131.332Z" fill="white"/>
<path d="M141.77 130.632C141.63 129.793 141.938 129.513 142.945 129.513C143.253 129.513 143.505 129.793 143.616 130.269C143.84 131.08 143.477 131.471 142.497 131.471C142.05 131.471 141.854 131.276 141.77 130.632Z" fill="white"/>
<path d="M138.917 130.772C138.385 130.353 138.385 130.353 138.973 130.353C139.336 130.353 139.588 130.52 139.588 130.772C139.588 131.276 139.588 131.276 138.917 130.772Z" fill="white"/>
<path d="M144.54 130.744C144.176 130.38 144.344 129.29 144.791 129.122C145.603 128.814 145.966 128.954 146.134 129.681C146.246 130.101 146.302 130.464 146.246 130.492C146.022 130.744 144.707 130.912 144.54 130.744Z" fill="white"/>
<path d="M147.029 130.157C146.945 130.073 146.861 129.709 146.861 129.373C146.861 128.898 147.085 128.702 147.757 128.562C148.344 128.45 148.708 128.506 148.876 128.73C149.155 129.178 149.155 129.737 148.903 129.877C148.4 130.157 147.225 130.325 147.029 130.157Z" fill="white"/>
<path d="M137.63 129.289C137.63 128.954 137.882 128.674 138.245 128.59C138.973 128.394 138.945 128.366 139.085 129.094C139.141 129.513 139.001 129.681 138.413 129.737C137.798 129.821 137.63 129.709 137.63 129.289Z" fill="white"/>
<path d="M139.756 129.318C139.364 128.898 139.616 128.115 140.148 128.115C140.511 128.115 140.707 128.31 140.707 128.646C140.707 129.178 140.064 129.625 139.756 129.318Z" fill="white"/>
<path d="M141.434 128.478C141.211 127.947 141.686 127.555 142.609 127.555C143.029 127.555 143.225 127.723 143.225 128.087C143.225 128.394 142.973 128.674 142.609 128.786C141.686 129.01 141.63 129.01 141.434 128.478Z" fill="white"/>
<path d="M149.519 128.394C149.603 128.254 149.743 128.115 149.827 128.115C149.911 128.115 149.883 128.254 149.799 128.394C149.715 128.562 149.575 128.674 149.491 128.674C149.407 128.674 149.435 128.562 149.519 128.394Z" fill="white"/>
<path d="M143.952 127.919C143.728 127.359 144.008 127.08 144.903 126.94C145.407 126.884 145.631 126.996 145.686 127.387C145.882 128.311 144.288 128.814 143.952 127.919Z" fill="white"/>
<path d="M137.238 127.443C136.987 126.52 137.043 126.436 137.77 126.436C138.162 126.436 138.469 126.548 138.469 126.688C138.469 126.828 138.553 127.135 138.637 127.359C138.721 127.639 138.553 127.807 138.078 127.891C137.546 128.003 137.35 127.891 137.238 127.443Z" fill="white"/>
<path d="M146.582 127.136C146.582 126.632 146.777 126.408 147.309 126.268C148.092 126.073 148.54 126.464 148.54 127.359C148.54 127.723 148.316 127.835 147.561 127.835C146.694 127.835 146.582 127.751 146.582 127.136Z" fill="white"/>
<path d="M136.399 127.136C136.315 126.912 136.371 126.716 136.511 126.716C136.679 126.716 136.791 126.912 136.791 127.136C136.791 127.359 136.735 127.555 136.679 127.555C136.623 127.555 136.511 127.359 136.399 127.136Z" fill="white"/>
<path d="M139.225 127.359C138.833 126.996 139.057 126.212 139.56 126.073C139.868 125.989 140.176 126.017 140.26 126.1C140.595 126.408 140.399 127.219 139.98 127.387C139.448 127.583 139.448 127.583 139.225 127.359Z" fill="white"/>
<path d="M149.211 127.164C148.903 126.352 149.239 125.737 150.022 125.653C150.61 125.569 150.778 125.681 150.778 126.128C150.778 127.052 150.47 127.555 149.911 127.555C149.603 127.555 149.295 127.387 149.211 127.164Z" fill="white"/>
<path d="M141.183 126.8C140.847 126.492 140.959 125.933 141.434 125.765C141.966 125.569 143.085 126.129 142.777 126.436C142.386 126.772 141.379 127.024 141.183 126.8Z" fill="white"/>
<path d="M143.616 126.1C143.365 125.709 144.26 125.037 144.987 125.037C145.323 125.037 145.463 125.205 145.407 125.513C145.295 126.072 143.868 126.52 143.616 126.1Z" fill="white"/>
<path d="M135.952 125.905C135.952 125.765 135.868 125.457 135.784 125.205C135.7 124.954 135.728 124.758 135.896 124.758C136.259 124.758 136.539 125.821 136.203 126.045C136.063 126.129 135.952 126.073 135.952 125.905Z" fill="white"/>
<path d="M136.707 125.261C136.539 124.646 136.875 124.198 137.518 124.198C137.882 124.198 138.245 125.289 138.022 125.653C137.714 126.128 136.847 125.849 136.707 125.261Z" fill="white"/>
<path d="M138.665 125.401C138.245 124.982 138.497 123.974 139.057 123.835C139.476 123.723 139.7 123.863 139.924 124.366C140.092 124.73 140.176 125.093 140.12 125.149C139.84 125.401 138.833 125.597 138.665 125.401Z" fill="white"/>
<path d="M146.218 125.401C145.854 125.037 146.022 124.814 146.861 124.506C147.561 124.282 147.757 124.31 147.896 124.646C148.148 125.317 146.749 125.961 146.218 125.401Z" fill="white"/>
<path d="M148.68 124.758C148.4 124.31 148.792 123.919 149.519 123.919C150.386 123.919 150.638 124.646 149.855 124.87C149.015 125.093 148.876 125.066 148.68 124.758Z" fill="white"/>
<path d="M151.057 124.086C151.057 123.667 151.561 123.219 151.785 123.443C151.981 123.639 151.589 124.478 151.309 124.478C151.169 124.478 151.057 124.31 151.057 124.086Z" fill="white"/>
<path d="M135.588 123.723C135.476 123.639 135.392 123.275 135.42 122.967C135.42 122.436 135.448 122.436 135.7 123.051C135.98 123.723 135.924 124.058 135.588 123.723Z" fill="white"/>
<path d="M136.119 123.303C135.868 122.324 135.896 122.24 136.623 122.24C137.434 122.24 137.938 123.275 137.322 123.667C136.679 124.058 136.315 123.947 136.119 123.303Z" fill="white"/>
<path d="M145.742 123.863C145.742 123.779 145.882 123.331 146.05 122.828C146.442 121.709 147.309 121.653 147.505 122.744C147.589 123.163 147.617 123.527 147.589 123.555C147.449 123.723 145.742 123.974 145.742 123.863Z" fill="white"/>
<path d="M138.106 123.163C137.994 123.079 137.91 122.744 137.91 122.436C137.91 121.988 137.994 121.96 138.329 122.24C138.553 122.436 138.749 122.772 138.749 122.967C138.749 123.387 138.413 123.499 138.106 123.163Z" fill="white"/>
<path d="M148.176 122.604C148.008 121.737 148.372 121.345 149.239 121.457C149.659 121.513 149.799 121.765 149.799 122.38C149.799 123.079 149.687 123.247 149.071 123.303C148.456 123.387 148.316 123.247 148.176 122.604Z" fill="white"/>
<path d="M150.918 122.716C150.554 121.597 150.666 121.261 151.421 121.177C152.092 121.093 152.176 121.177 152.176 121.904C152.176 122.52 152.009 122.772 151.589 122.883C151.281 122.967 150.974 122.883 150.918 122.716Z" fill="white"/>
<path d="M135.168 121.121C135.168 120.59 135.224 120.366 135.308 120.646C135.364 120.897 135.364 121.345 135.308 121.625C135.224 121.876 135.168 121.653 135.168 121.121Z" fill="white"/>
<path d="M135.868 121.485C135.504 121.149 135.672 120.058 136.119 119.89C136.763 119.638 137.071 119.946 137.071 120.869C137.071 121.457 136.931 121.681 136.567 121.681C136.287 121.681 135.952 121.597 135.868 121.485Z" fill="white"/>
<path d="M137.546 120.73C137.434 120.31 137.378 119.862 137.49 119.778C137.77 119.499 137.938 119.946 137.854 120.758L137.77 121.541L137.546 120.73Z" fill="white"/>
<path d="M146.582 120.534C146.582 120.226 146.722 120.058 146.861 120.142C147.029 120.226 147.141 120.506 147.141 120.729C147.141 120.953 147.029 121.121 146.861 121.121C146.722 121.121 146.582 120.869 146.582 120.534Z" fill="white"/>
<path d="M147.84 120.897C147.449 120.478 147.757 119.723 148.4 119.555C149.211 119.359 149.239 119.359 149.491 120.17C149.659 120.674 149.547 120.786 148.82 120.897C148.372 120.981 147.924 120.953 147.84 120.897Z" fill="white"/>
<path d="M150.414 120.366C150.106 120.086 150.19 119.163 150.498 119.163C150.666 119.163 150.778 119.051 150.778 118.883C150.778 118.743 150.61 118.604 150.386 118.604C149.911 118.604 149.519 117.233 149.911 116.841C150.414 116.338 150.974 116.869 151.309 118.24C151.505 118.967 151.701 119.806 151.785 120.086C151.897 120.45 151.785 120.562 151.253 120.562C150.89 120.562 150.498 120.478 150.414 120.366Z" fill="white"/>
<path d="M151.925 118.883C151.729 118.044 151.225 116.366 150.862 115.135C150.302 113.344 150.246 112.897 150.554 112.701C150.75 112.561 151.002 112.449 151.085 112.449C151.393 112.449 152.512 118.184 152.4 119.303L152.316 120.422L151.925 118.883Z" fill="white"/>
<path d="M134.889 118.743C134.889 118.296 134.944 118.128 135.028 118.408C135.084 118.66 135.084 119.051 135.028 119.247C134.944 119.415 134.889 119.219 134.889 118.743Z" fill="white"/>
<path d="M135.448 118.687C135.56 117.708 136.371 117.485 136.595 118.38C136.791 119.107 136.847 119.023 136.008 119.303C135.42 119.471 135.364 119.415 135.448 118.687Z" fill="white"/>
<path d="M147.253 118.436C147.029 117.624 147.505 117.149 148.4 117.261C149.071 117.345 149.323 118.548 148.764 118.911C148.064 119.359 147.421 119.163 147.253 118.436Z" fill="white"/>
<path d="M137.071 118.212C137.071 117.736 137.21 117.484 137.518 117.484C137.798 117.484 137.91 117.68 137.854 118.1C137.714 118.995 137.071 119.079 137.071 118.212Z" fill="white"/>
<path d="M134.581 117.037C134.581 116.729 134.665 116.645 134.749 116.869C134.833 117.065 134.805 117.317 134.721 117.401C134.637 117.513 134.553 117.345 134.581 117.037Z" fill="white"/>
<path d="M135.112 116.953C135.112 116.533 135.28 116.366 135.7 116.366C136.091 116.366 136.231 116.505 136.175 116.841C136.035 117.569 135.112 117.652 135.112 116.953Z" fill="white"/>
<path d="M136.651 116.701C136.455 116.198 136.455 116.198 137.294 115.974C137.798 115.806 137.91 115.89 137.91 116.31C137.91 116.981 136.903 117.317 136.651 116.701Z" fill="white"/>
<path d="M146.777 116.31C146.582 115.61 146.945 115.247 147.924 115.247C148.4 115.247 148.54 115.415 148.54 115.946C148.54 116.366 148.372 116.645 148.148 116.645C147.924 116.645 147.561 116.729 147.337 116.813C147.085 116.897 146.889 116.729 146.777 116.31Z" fill="white"/>
<path d="M149.211 115.666C148.987 115.107 149.323 114.687 149.966 114.687C150.358 114.687 150.498 114.883 150.498 115.386C150.498 115.89 150.358 116.086 149.939 116.086C149.631 116.086 149.295 115.89 149.211 115.666Z" fill="white"/>
<path d="M134.833 115.275C134.833 114.687 135.476 114.016 135.756 114.324C135.868 114.407 135.952 114.799 135.952 115.163C135.952 115.61 135.784 115.806 135.392 115.806C135.028 115.806 134.833 115.61 134.833 115.275Z" fill="white"/>
<path d="M136.371 114.939C136.147 114.24 136.399 113.932 137.35 113.792C138.217 113.68 138.497 114.603 137.742 115.163C137.015 115.694 136.567 115.61 136.371 114.939Z" fill="white"/>
<path d="M146.498 114.771C146.302 114.603 146.218 113.568 146.386 113.568C146.414 113.568 146.833 113.456 147.337 113.316C148.176 113.065 148.232 113.093 148.204 113.848C148.176 114.407 148.008 114.687 147.589 114.799C146.833 114.995 146.722 114.995 146.498 114.771Z" fill="white"/>
<path d="M145.463 114.128C145.463 113.932 145.547 113.848 145.658 113.932C145.742 114.044 145.742 114.212 145.658 114.323C145.547 114.407 145.463 114.323 145.463 114.128Z" fill="white"/>
<path d="M148.596 113.68C148.68 113.204 149.547 112.505 149.743 112.729C149.827 112.813 149.966 113.149 150.05 113.512C150.246 114.072 150.162 114.128 149.379 114.128C148.708 114.128 148.512 114.016 148.596 113.68Z" fill="white"/>
<path d="M135.112 113.652C135.112 113.512 135.252 113.233 135.392 113.009C135.616 112.673 135.672 112.701 135.672 113.233C135.672 113.568 135.56 113.848 135.392 113.848C135.252 113.848 135.112 113.764 135.112 113.652Z" fill="white"/>
<path d="M135.952 113.037C135.952 112.253 136.539 112.002 136.987 112.589C137.266 113.009 137.266 113.149 136.987 113.344C136.399 113.708 135.952 113.596 135.952 113.037Z" fill="white"/>
<path d="M144.456 112.673C143.952 112.114 143.952 112.086 144.428 112.253C144.707 112.365 145.071 112.449 145.211 112.449C145.351 112.449 145.463 112.645 145.463 112.869C145.463 113.456 145.071 113.4 144.456 112.673Z" fill="white"/>
<path d="M138.441 112.645C137.238 111.722 137.071 109.652 138.189 109.652C138.945 109.652 139.644 110.827 139.532 111.918C139.448 112.925 139.113 113.149 138.441 112.645Z" fill="white"/>
<path d="M146.106 112.813C146.218 112.729 146.386 112.729 146.498 112.813C146.582 112.925 146.498 113.009 146.302 113.009C146.106 113.009 146.022 112.925 146.106 112.813Z" fill="white"/>
<path d="M150.33 111.722C150.414 111.47 150.498 111.218 150.498 111.162C150.498 111.106 150.638 111.051 150.778 111.051C150.946 111.051 151.057 111.302 151.057 111.61C151.057 111.946 150.862 112.169 150.61 112.169C150.302 112.169 150.218 112.03 150.33 111.722Z" fill="white"/>
<path d="M135.672 111.638C135.672 110.995 136.259 109.932 136.595 109.932C137.182 109.932 136.763 111.722 136.147 111.834C135.896 111.89 135.672 111.806 135.672 111.638Z" fill="white"/>
<path d="M141.966 111.33L141.127 111.134L141.882 110.939C142.665 110.715 143.225 110.883 143.225 111.358C143.225 111.638 143.197 111.638 141.966 111.33Z" fill="white"/>
<path d="M140.987 109.988C140.987 108.841 141.63 108.673 142.218 109.68C142.609 110.351 142.637 110.491 142.274 110.491C142.05 110.491 141.686 110.575 141.434 110.659C141.099 110.799 140.987 110.631 140.987 109.988Z" fill="white"/>
<path d="M145.854 110.379C144.595 109.82 143.784 108.337 143.784 106.575C143.784 105.316 143.896 105.008 144.651 104.309C145.127 103.861 145.603 103.498 145.742 103.498C146.358 103.498 148.624 105.652 149.379 106.994L150.246 108.533L149.323 109.512C148.26 110.631 147.085 110.939 145.854 110.379Z" fill="white"/>
<path d="M140.008 109.652C139.924 109.512 139.98 109.372 140.12 109.372C140.288 109.372 140.427 109.512 140.427 109.652C140.427 109.82 140.371 109.932 140.315 109.932C140.232 109.932 140.092 109.82 140.008 109.652Z" fill="white"/>
<path d="M136.343 109.204C136.427 108.953 136.511 108.701 136.511 108.645C136.511 108.589 136.763 108.533 137.071 108.533C137.77 108.533 137.798 108.981 137.098 109.372C136.343 109.764 136.147 109.736 136.343 109.204Z" fill="white"/>
<path d="M138.553 108.869C137.91 108.785 137.714 108.421 138.134 108.169C138.245 108.085 138.749 107.945 139.252 107.834C140.008 107.666 140.148 107.722 140.148 108.197C140.148 108.785 139.56 109.036 138.553 108.869Z" fill="white"/>
<path d="M140.707 107.918C140.707 107.582 140.735 107.386 140.791 107.442C140.819 107.498 141.043 107.778 141.239 108.057C141.574 108.449 141.546 108.533 141.155 108.533C140.875 108.533 140.707 108.309 140.707 107.918Z" fill="white"/>
<path d="M136.791 107.722C136.791 107.554 136.931 107.358 137.071 107.274C137.238 107.19 137.35 107.302 137.35 107.526C137.35 107.778 137.238 107.973 137.071 107.973C136.931 107.973 136.791 107.862 136.791 107.722Z" fill="white"/>
<path d="M137.826 107.302C137.602 106.743 139.588 106.127 139.924 106.659C140.176 107.106 139.924 107.302 138.861 107.526C138.217 107.666 137.938 107.61 137.826 107.302Z" fill="white"/>
<path d="M140.455 106.407C140.455 106.099 140.539 106.015 140.623 106.239C140.707 106.435 140.679 106.687 140.595 106.77C140.511 106.882 140.427 106.715 140.455 106.407Z" fill="white"/>
<path d="M138.078 105.959C138.413 105.344 139.392 104.337 139.644 104.337C139.924 104.337 139.952 105.652 139.672 105.819C139.532 105.875 139.085 106.015 138.665 106.127C138.05 106.267 137.91 106.239 138.078 105.959Z" fill="white"/>
<path d="M140.315 105.316C140.008 104.477 140.148 104.113 140.819 104.001C141.518 103.861 141.518 103.861 141.071 104.728C140.511 105.847 140.539 105.847 140.315 105.316Z" fill="white"/>
<path d="M140.148 103.638C140.148 103.582 140.707 103.19 141.406 102.798C142.246 102.295 142.833 102.127 143.253 102.239C143.756 102.407 143.616 102.519 142.386 103.106C141.015 103.721 140.148 103.945 140.148 103.638Z" fill="white"/>
<path d="M155.673 78.8526C154.918 77.7617 153.323 75.9993 152.176 74.9363C151.029 73.8733 150.274 73.0061 150.498 73.0061C151.113 73.0061 155.813 74.2929 156.988 74.7964C157.967 75.216 157.995 75.272 157.743 76.1392C157.603 76.6427 157.491 77.9015 157.491 78.9366C157.491 79.9996 157.408 80.8388 157.296 80.8388C157.156 80.8388 156.456 79.9436 155.673 78.8526Z" fill="white"/>
<path d="M98.7463 163.585C97.5994 162.998 97.3476 162.662 95.893 159.781C93.7949 155.697 93.739 154.746 95.7251 157.068C96.5084 157.991 98.3267 159.893 99.7534 161.292C102.187 163.641 102.299 163.809 101.488 163.697C100.9 163.613 100.676 163.669 100.816 163.893C101.152 164.397 100.089 164.257 98.7463 163.585Z" fill="white"/>
<path fill-rule="evenodd" clip-rule="evenodd" d="M145.627 214.552C145.395 214 145.654 213.365 146.205 213.133L146.808 212.877C152.668 210.37 156.031 208.864 158.316 206.472C160.602 204.081 160.875 200.568 161.305 198.43C161.422 197.844 162.751 198.874 163.337 198.992C163.924 199.11 164.304 199.681 164.186 200.267C163.67 202.837 162.28 205.287 160.042 207.613C157.811 209.931 153.493 212.415 147.046 215.13C146.495 215.362 145.86 215.103 145.627 214.552Z" fill="#00160A"/>
<path fill-rule="evenodd" clip-rule="evenodd" d="M172.126 102.936C172.64 102.63 173.305 102.798 173.611 103.312C176.675 108.46 178.317 114.345 178.317 120.467C178.317 139.014 163.281 154.05 144.733 154.05C139.805 154.05 135.025 152.987 130.647 150.962C130.104 150.711 128.053 148.71 130.119 149.524C132.185 150.337 140.178 152.163 144.791 152.163C162.142 152.163 174.417 137.818 174.417 120.467C174.417 114.737 172.126 109.652 171.749 104.421C171.705 103.814 171.612 103.242 172.126 102.936Z" fill="#00160A"/>
<path fill-rule="evenodd" clip-rule="evenodd" d="M64.8349 184.927C65.2178 184.468 65.9009 183.539 66.3606 183.922C68.2465 185.493 70.2591 187.313 72.4118 187.664C74.652 188.029 77.3096 188.029 80.3812 187.658C80.9751 187.586 81.5149 188.009 81.5869 188.603C81.6588 189.197 81.2355 189.737 80.6416 189.809C77.3797 190.203 74.5213 190.203 72.0629 189.802C69.5171 189.387 67.1495 188.265 64.9739 186.453C64.5142 186.07 64.4519 185.387 64.8349 184.927Z" fill="#00160A"/>
<path d="M87.8365 147.025C86.4378 145.906 83.4446 142.605 81.1787 139.696C80.0038 138.157 78.689 135.024 77.9057 131.863C77.5421 130.437 77.1784 129.15 77.0945 128.982C76.9826 128.842 76.535 126.856 76.0874 124.562C75.4161 121.317 75.5581 120.272 74.9685 116.39C74.7189 114.747 74.4929 113.439 74.4929 113.439L75.2203 112.505C75.6399 111.946 76.1706 111.02 76.3672 110.491C77.2623 108.082 83.8362 100.532 84.032 100.728C84.088 100.784 83.8642 102.099 83.4725 103.638C83.1089 105.176 82.6613 107.498 82.4655 108.813C82.1857 110.995 82.0739 111.246 81.2067 111.974C80.1157 112.897 78.0456 115.862 78.0456 116.478C78.0456 117.317 79.3044 116.757 80.6192 115.387L81.962 113.988V115.526C81.962 116.533 81.7661 117.457 81.4025 118.184C80.7031 119.555 80.7031 121.009 81.3745 122.128C81.7102 122.688 82.0179 124.03 82.2137 125.625C83.0809 132.842 84.9272 139.108 88.0882 145.403C88.8715 146.969 89.4869 148.256 89.459 148.256C89.403 148.256 88.6757 147.696 87.8365 147.025Z" fill="white"/>
<path fill-rule="evenodd" clip-rule="evenodd" d="M204.236 164.285L206.25 165.18C206.668 165.373 211.275 167.587 216.809 170.246C225.732 174.533 237.064 179.978 237.133 179.978C237.245 179.978 237.77 178.764 237.888 177.349C238.168 174.3 239.203 170.159 240.406 167.278C240.966 165.991 241.413 164.383 241.413 164.243C241.413 164.179 240.958 163.996 240.214 163.696C239.328 163.338 238.031 162.815 236.602 162.131C229.552 158.746 215.761 151.837 214.055 150.801C212.376 149.822 212.041 149.738 212.041 150.382C212.041 151.221 210.334 155.109 209.019 157.207C208.32 158.354 206.949 160.424 205.97 161.795L204.236 164.285ZM236.658 174.943C237.46 175.408 236.07 176.09 235.734 176.202C233.758 176.37 231.431 175.998 229.524 174.887C228.527 174.18 220.678 169.819 215.471 166.926C213.09 165.604 211.262 164.588 210.894 164.369C209.719 163.669 208.6 162.914 208.404 162.69C207.816 161.935 208.376 161.599 210.026 161.739C211.019 161.823 234.925 173.939 236.658 174.943Z" fill="white"/>
<path d="M184.151 166.802C183.423 166.551 182.64 165.991 182.136 165.348L181.297 164.313L184.262 161.376C188.822 156.9 192.179 152.008 195.2 146.553C196.207 144.735 199.201 137.402 199.564 136.591C200.124 135.416 200.543 134.968 201.746 134.297C203.173 133.458 204.795 133.178 205.495 133.653C206.837 134.549 206.837 137.374 205.495 142.241C204.012 147.584 202.026 151.417 197.914 156.928C197.27 157.767 196.067 159.417 195.2 160.564C192.878 163.641 191.368 165.124 189.326 166.271C187.312 167.39 186.137 167.53 184.151 166.802Z" fill="white"/>
<path d="M194.697 166.159L194.109 165.572C194.109 165.572 203.859 153.184 205.607 148.62C206.94 145.136 207.724 144.148 208.783 144.148C209.375 144.148 209.859 144.284 210.082 144.619C210.474 145.207 210.851 145.934 210.348 148.424C209.509 152.452 208.222 155.109 204.361 160.844C203.466 162.159 202.319 163.614 201.816 164.117C200.641 165.208 197.998 166.327 196.459 166.579C195.48 166.719 195.2 166.663 194.697 166.159Z" fill="white"/>
<path fill-rule="evenodd" clip-rule="evenodd" d="M211.074 153.206C211.638 151.915 212.041 150.789 212.041 150.382C212.041 149.738 212.376 149.822 214.055 150.801C215.761 151.837 229.552 158.746 236.602 162.131C239.231 163.39 241.413 164.103 241.413 164.243C241.413 164.383 210.476 154.574 211.074 153.206Z" fill="#E7EAEE"/>
<path fill-rule="evenodd" clip-rule="evenodd" d="M115.363 154.802C111.81 152.48 106.439 147.025 103.838 143.137C100.117 137.542 97.6553 131.555 96.4524 125.121C95.5852 120.45 95.6132 113.26 96.4804 109.092C97.3756 104.84 98.5225 101.595 100.565 97.4832C102.942 92.7276 105.46 89.2309 109.237 85.4544C112.94 81.7511 96.4804 97.0659 100.565 124.467C103.838 147.43 117.904 156.476 115.363 154.802Z" fill="#E7EAEE"/>
</svg>
